<svg width="42" height="42" viewBox="0 0 42 42" fill="none" xmlns="http://www.w3.org/2000/svg">
<path d="M3.86719 27.9366L9.56344 27.5231C9.56344 27.5231 12.5953 24.6225 15.7059 22.6735C16.2966 22.306 16.8938 21.9647 17.4647 21.6891C20.4047 20.2847 21.9731 18.7819 22.6294 18.0272C22.8788 17.745 23.3709 17.6138 23.6203 17.9025C25.1363 19.681 24.4931 21.3872 23.4038 22.68C22.7738 23.4281 21.9928 24.0385 21.3891 24.4519C21.0281 24.6947 21.12 25.2394 21.5334 25.3706L23.4497 25.9613C23.7384 26.0466 24.0469 26.0531 24.3356 25.9613C26.3175 25.3116 28.1353 23.9794 29.5003 22.68" stroke="#DE4E95" stroke-width="2" stroke-miterlimit="10" stroke-linecap="round" stroke-linejoin="round"/>
<path d="M6.50781 37.4588C6.50781 37.4588 21.4112 33.5081 25.4209 32.3991C29.4241 31.29 31.7275 27.615 31.7275 27.615L35.0022 22.6735" stroke="#DE4E95" stroke-width="2" stroke-miterlimit="10" stroke-linecap="round" stroke-linejoin="round"/>
<path d="M22.882 10.756C22.882 10.756 22.4357 9.7323 20.7229 9.7323C19.0101 9.7323 17.8551 12.167 20.2242 12.8036C22.9214 13.5254 23.2823 14.0242 23.0592 15.0742C22.7639 16.4457 19.0692 16.682 18.9117 14.746" stroke="#DE4E95" stroke-width="2" stroke-miterlimit="10" stroke-linecap="round" stroke-linejoin="round"/>
<path d="M20.9453 8.7085V17.5613" stroke="#DE4E95" stroke-width="2" stroke-miterlimit="10" stroke-linecap="round" stroke-linejoin="round"/>
<path d="M23.4087 22.6734H29.4988H34.9981H39.2506V4.54126H2.75V22.6734H15.7044" stroke="#DE4E95" stroke-width="2" stroke-miterlimit="10" stroke-linecap="round" stroke-linejoin="round"/>
<path d="M16.6506 7.10059H5.38281V20.3175H16.6506" stroke="#DE4E95" stroke-width="2" stroke-miterlimit="10" stroke-linecap="round" stroke-linejoin="round"/>
<path d="M25.2734 20.3175H36.5347V7.10059H25.2734" stroke="#DE4E95" stroke-width="2" stroke-miterlimit="10" stroke-linecap="round" stroke-linejoin="round"/>
<path d="M13.2298 13.6106C13.2298 14.4046 12.5867 15.0478 11.7927 15.0478C10.9986 15.0478 10.3555 14.4046 10.3555 13.6106C10.3555 12.8165 10.9986 12.1734 11.7927 12.1734C12.5867 12.1668 13.2298 12.81 13.2298 13.6106Z" stroke="#DE4E95" stroke-width="2" stroke-miterlimit="10" stroke-linecap="round" stroke-linejoin="round"/>
<path d="M31.5775 13.6106C31.5775 14.4046 30.9344 15.0478 30.1403 15.0478C29.3462 15.0478 28.7031 14.4046 28.7031 13.6106C28.7031 12.8165 29.3462 12.1734 30.1403 12.1734C30.9278 12.1668 31.5775 12.81 31.5775 13.6106Z" stroke="#DE4E95" stroke-width="2" stroke-miterlimit="10" stroke-linecap="round" stroke-linejoin="round"/>
</svg>
