<svg width="42" height="42" viewBox="0 0 42 42" fill="none" xmlns="http://www.w3.org/2000/svg">
<path d="M31.0035 40.1133H10.9949C9.32841 40.1133 7.97266 38.7574 7.97266 37.0909V9.18585C7.97266 7.51928 9.32841 6.16345 10.9949 6.16345H15.6965C16.059 6.16345 16.3528 6.45727 16.3528 6.8197C16.3528 7.18213 16.059 7.47594 15.6965 7.47594H10.9949C10.0521 7.47594 9.28515 8.243 9.28515 9.18585V37.0909C9.28515 38.0337 10.0521 38.8008 10.9949 38.8008H31.0035C31.9462 38.8008 32.7132 38.0337 32.7132 37.0909V9.18585C32.7132 8.243 31.9462 7.47594 31.0035 7.47594H26.3018C25.9394 7.47594 25.6456 7.18213 25.6456 6.8197C25.6456 6.45727 25.9394 6.16345 26.3018 6.16345H31.0035C32.6699 6.16345 34.0257 7.51931 34.0257 9.18585V37.0909C34.0257 38.7574 32.6699 40.1133 31.0035 40.1133Z" fill="#DE4E95" stroke="#DE4E95" stroke-width="0.5"/>
<path d="M28.7741 37.8834H13.2254C11.5589 37.8834 10.2031 36.5275 10.2031 34.861V11.4159C10.2031 9.74928 11.5589 8.39343 13.2254 8.39343H15.6971C16.0595 8.39343 16.3533 8.68725 16.3533 9.04968C16.3533 9.41211 16.0595 9.70592 15.6971 9.70592H13.2254C12.2826 9.70592 11.5156 10.473 11.5156 11.4158V34.861C11.5156 35.8038 12.2826 36.5709 13.2254 36.5709H28.7741C29.7168 36.5709 30.4838 35.8038 30.4838 34.861V11.4159C30.4838 10.473 29.7168 9.70594 28.7741 9.70594H26.3024C25.9399 9.70594 25.6461 9.41212 25.6461 9.04969C25.6461 8.68726 25.9399 8.39344 26.3024 8.39344H28.7741C30.4405 8.39344 31.7963 9.7493 31.7963 11.4159V34.861C31.7963 36.5275 30.4405 37.8834 28.7741 37.8834Z" fill="#DE4E95" stroke="#DE4E95" stroke-width="0.5"/>
<path d="M26.3005 11.1683H15.6953C15.3329 11.1683 15.0391 10.8745 15.0391 10.5121V5.3574C15.0391 4.99496 15.3329 4.70115 15.6953 4.70115H17.5894C17.897 3.10007 19.3084 1.88672 20.9979 1.88672C22.6874 1.88672 24.0988 3.10006 24.4063 4.70115H26.3005C26.6629 4.70115 26.9567 4.99497 26.9567 5.3574V10.5121C26.9567 10.8746 26.6629 11.1683 26.3005 11.1683ZM16.3516 9.85584H25.6442V6.01365H23.8123C23.4499 6.01365 23.1561 5.71983 23.1561 5.3574C23.1561 4.16737 22.1879 3.19922 20.9979 3.19922C19.8079 3.19922 18.8397 4.16737 18.8397 5.3574C18.8397 5.71983 18.5459 6.01365 18.1835 6.01365H16.3516L16.3516 9.85584Z" fill="#DE4E95"/>
<path d="M24.4686 5.3574H24.4688M26.3005 11.1683H15.6953C15.3329 11.1683 15.0391 10.8745 15.0391 10.5121V5.3574C15.0391 4.99496 15.3329 4.70115 15.6953 4.70115H17.5894C17.897 3.10007 19.3084 1.88672 20.9979 1.88672C22.6874 1.88672 24.0988 3.10006 24.4063 4.70115H26.3005C26.6629 4.70115 26.9567 4.99497 26.9567 5.3574V10.5121C26.9567 10.8746 26.6629 11.1683 26.3005 11.1683ZM16.3516 9.85584H25.6442V6.01365H23.8123C23.4499 6.01365 23.1561 5.71983 23.1561 5.3574C23.1561 4.16737 22.1879 3.19922 20.9979 3.19922C19.8079 3.19922 18.8397 4.16737 18.8397 5.3574C18.8397 5.71983 18.5459 6.01365 18.1835 6.01365H16.3516L16.3516 9.85584Z" stroke="#DE4E95" stroke-width="0.5"/>
<path d="M17.1136 18.0881H13.4766C13.1141 18.0881 12.8203 17.7942 12.8203 17.4318V13.7948C12.8203 13.4324 13.1141 13.1385 13.4766 13.1385H17.1136C17.476 13.1385 17.7698 13.4324 17.7698 13.7948V17.4318C17.7698 17.7943 17.476 18.0881 17.1136 18.0881ZM14.1328 16.7756H16.4573V14.4511H14.1328V16.7756Z" fill="#DE4E95" stroke="#DE4E95" stroke-width="0.5"/>
<path d="M28.5245 14.9485H19.875C19.5126 14.9485 19.2188 14.6547 19.2188 14.2922C19.2188 13.9298 19.5126 13.636 19.875 13.636H28.5245C28.887 13.636 29.1808 13.9298 29.1808 14.2922C29.1808 14.6547 28.887 14.9485 28.5245 14.9485Z" fill="#DE4E95" stroke="#DE4E95" stroke-width="0.5"/>
<path d="M26.8537 17.5907H19.875C19.5126 17.5907 19.2188 17.2969 19.2188 16.9344C19.2188 16.572 19.5126 16.2782 19.875 16.2782H26.8537C27.2161 16.2782 27.5099 16.572 27.5099 16.9344C27.5099 17.2969 27.2161 17.5907 26.8537 17.5907Z" fill="#DE4E95" stroke="#DE4E95" stroke-width="0.5"/>
<path d="M17.1136 25.6131H13.4766C13.1141 25.6131 12.8203 25.3193 12.8203 24.9568V21.3198C12.8203 20.9574 13.1141 20.6636 13.4766 20.6636H17.1136C17.476 20.6636 17.7698 20.9574 17.7698 21.3198V24.9568C17.7698 25.3193 17.476 25.6131 17.1136 25.6131ZM14.1328 24.3006H16.4573V21.9761H14.1328V24.3006Z" fill="#DE4E95" stroke="#DE4E95" stroke-width="0.5"/>
<path d="M28.5245 22.4735H19.875C19.5126 22.4735 19.2188 22.1797 19.2188 21.8173C19.2188 21.4548 19.5126 21.161 19.875 21.161H28.5245C28.887 21.161 29.1808 21.4548 29.1808 21.8173C29.1808 22.1797 28.887 22.4735 28.5245 22.4735Z" fill="#DE4E95" stroke="#DE4E95" stroke-width="0.5"/>
<path d="M26.8537 25.1157H19.875C19.5126 25.1157 19.2188 24.8219 19.2188 24.4595C19.2188 24.097 19.5126 23.8032 19.875 23.8032H26.8537C27.2161 23.8032 27.5099 24.097 27.5099 24.4595C27.5099 24.8219 27.2161 25.1157 26.8537 25.1157Z" fill="#DE4E95" stroke="#DE4E95" stroke-width="0.5"/>
<path d="M17.1136 33.1381H13.4766C13.1141 33.1381 12.8203 32.8443 12.8203 32.4819V28.8448C12.8203 28.4824 13.1141 28.1886 13.4766 28.1886H17.1136C17.476 28.1886 17.7698 28.4824 17.7698 28.8448V32.4819C17.7698 32.8443 17.476 33.1381 17.1136 33.1381ZM14.1328 31.8256H16.4573V29.5011H14.1328V31.8256Z" fill="#DE4E95" stroke="#DE4E95" stroke-width="0.5"/>
<path d="M28.5245 29.9984H19.875C19.5126 29.9984 19.2188 29.7046 19.2188 29.3422C19.2188 28.9797 19.5126 28.6859 19.875 28.6859H28.5245C28.887 28.6859 29.1808 28.9797 29.1808 29.3422C29.1808 29.7046 28.887 29.9984 28.5245 29.9984Z" fill="#DE4E95" stroke="#DE4E95" stroke-width="0.5"/>
<path d="M26.8537 32.6406H19.875C19.5126 32.6406 19.2188 32.3468 19.2188 31.9844C19.2188 31.6219 19.5126 31.3281 19.875 31.3281H26.8537C27.2161 31.3281 27.5099 31.6219 27.5099 31.9844C27.5099 32.3468 27.2161 32.6406 26.8537 32.6406Z" fill="#DE4E95" stroke="#DE4E95" stroke-width="0.5"/>
</svg>
