<svg width="42" height="42" viewBox="0 0 42 42" fill="none" xmlns="http://www.w3.org/2000/svg">
<path d="M36.7291 27.5837C36.4197 27.2585 35.9941 27.069 35.5455 27.0568C35.0968 27.0445 34.6615 27.2105 34.3348 27.5183L30.7876 31.0655L29.4123 29.6902C29.0838 29.3645 28.6396 29.1822 28.177 29.1832C27.7144 29.1842 27.271 29.3684 26.9438 29.6955C26.6167 30.0225 26.4324 30.4659 26.4313 30.9285C26.4302 31.3911 26.6123 31.8353 26.9379 32.1639L29.3841 34.6101C29.7328 34.9763 30.2119 35.1899 30.7173 35.2047C31.2226 35.2194 31.7134 35.0341 32.0828 34.6889L36.7945 29.9773C37.1025 29.6509 37.2686 29.2156 37.2563 28.767C37.2441 28.3183 37.0545 27.8928 36.7291 27.5837ZM35.8665 29.0493L31.1548 33.761C31.1043 33.8072 31.045 33.843 30.9806 33.8664C30.9162 33.8897 30.8477 33.9 30.7793 33.8968C30.6022 33.8861 30.4355 33.8096 30.3121 33.6821L27.8659 31.2353C27.7803 31.1536 27.7286 31.0426 27.7211 30.9245C27.6896 30.7964 27.8509 30.6382 27.946 30.5528C28.0272 30.493 28.1281 30.4665 28.2281 30.4787C28.3282 30.4908 28.4198 30.5407 28.4843 30.6181L30.3236 32.4575C30.3845 32.5184 30.4569 32.5668 30.5365 32.5998C30.6161 32.6328 30.7014 32.6497 30.7876 32.6497C30.8738 32.6497 30.9591 32.6328 31.0387 32.5998C31.1183 32.5668 31.1907 32.5184 31.2516 32.4575L35.2621 28.4469C35.5561 28.1575 36.1764 28.7019 35.8665 29.0493ZM31.8335 22.8893C31.3362 22.8913 30.8402 22.9384 30.3514 23.03C28.0374 20.8968 25.1731 19.453 22.0819 18.8616C29.9609 14.6955 27.1553 2.73756 18.1162 2.625C8.89014 2.76267 6.25553 15.0599 14.4594 19.0104C7.59247 20.4729 1.78715 26.7603 1.92425 33.8284L1.92415 35.799C1.92519 36.7471 2.30228 37.6561 2.9727 38.3265C3.64311 38.9969 4.55209 39.374 5.5002 39.375H31.7028C42.7247 39.0722 42.8573 23.3678 31.8335 22.8893ZM10.8226 11.2312C10.8247 9.29745 11.5938 7.44347 12.9612 6.07608C14.3286 4.70869 16.1826 3.93958 18.1164 3.9375C27.7926 4.33768 27.7897 18.1263 18.1163 18.525C16.1825 18.5229 14.3286 17.7538 12.9612 16.3864C11.5938 15.019 10.8247 13.165 10.8226 11.2312ZM5.5002 38.0625C4.90005 38.0619 4.32464 37.8233 3.90027 37.3989C3.4759 36.9745 3.23723 36.3991 3.23665 35.799V33.8283C3.12968 25.9075 10.7455 19.6602 18.5766 19.8351C22.3168 19.8033 25.9494 21.0865 28.8399 23.4605C27.4297 24.0173 26.2002 24.952 25.2864 26.1618C24.3726 27.3716 23.8098 28.8099 23.6598 30.3186C23.5097 31.8273 23.7783 33.3482 24.436 34.7143C25.0937 36.0804 26.1151 37.2388 27.388 38.0625H5.5002ZM31.8335 38.0625C29.9961 38.0605 28.2345 37.3297 26.9353 36.0304C25.636 34.7311 24.9052 32.9696 24.9032 31.1321C25.2837 21.9381 38.3847 21.9407 38.7639 31.1322C38.7618 32.9696 38.031 34.7312 36.7317 36.0304C35.4325 37.3296 33.671 38.0605 31.8335 38.0625Z" fill="#DE4E95" stroke="#DE4E95" stroke-width="0.5"/>
</svg>
