<svg width="42" height="42" viewBox="0 0 42 42" fill="none" xmlns="http://www.w3.org/2000/svg">
<path d="M37.4798 40.5792L36.2198 34.0167C35.6882 31.2506 33.8565 29.14 31.1888 28.2237L25.2932 26.2418L24.842 24.6807C25.3326 24.3247 25.7805 23.8949 26.1783 23.4011C26.9544 23.958 27.8829 24.2591 28.8526 24.2591C31.3857 24.2591 33.4463 22.1985 33.4463 19.6654C33.4463 17.3422 31.7122 15.417 29.4702 15.1143C29.526 14.7164 29.5547 14.3136 29.5547 13.9109C29.5547 11.6771 28.7131 9.59109 27.1775 7.9923L28.5499 4.9875C28.6327 4.80539 28.6155 4.59293 28.5031 4.42723C26.9412 2.11723 24.1784 0.738281 21.1113 0.738281C18.0441 0.738281 15.2805 2.11723 13.7194 4.42641C13.607 4.59211 13.5898 4.80457 13.6727 4.98668L14.9745 7.83645C13.361 9.4377 12.4438 11.6279 12.4438 13.9109C12.4438 14.4875 12.5021 15.0634 12.6169 15.6261C12.3397 16.0929 12.1904 16.6417 12.1904 17.2093C12.1904 18.5686 13.0369 19.7129 14.1854 20.0017C14.6841 21.9745 15.7571 23.5766 17.177 24.6094L16.7054 26.2426L10.8057 28.2253C8.14212 29.14 6.30955 31.2514 5.77798 34.0175L4.51798 40.58C4.48599 40.7482 4.53029 40.9221 4.63939 41.0542C4.74849 41.1862 4.91091 41.2625 5.08236 41.2625H36.917C37.0885 41.2625 37.2509 41.1862 37.36 41.0542C37.4691 40.9221 37.5126 40.7474 37.4798 40.5792ZM32.2979 19.6645C32.2979 21.5644 30.7524 23.1098 28.8526 23.1098C28.1184 23.1098 27.4145 22.8785 26.8297 22.4536C27.2546 21.7284 27.5885 20.9057 27.814 20C28.9625 19.7113 29.8082 18.5678 29.8082 17.2077C29.8082 16.9034 29.7647 16.6039 29.6819 16.3201C31.1822 16.6934 32.2979 18.051 32.2979 19.6645ZM21.1113 1.88672C23.678 1.88672 25.9913 2.97363 27.3678 4.81113L25.3342 9.26379H16.8883L14.8547 4.81113C16.2312 2.97363 18.5445 1.88672 21.1113 1.88672ZM15.488 8.96109L15.9974 10.0759C16.091 10.2802 16.2952 10.4114 16.52 10.4114H25.7034C25.9281 10.4114 26.1324 10.2802 26.2259 10.0759L26.659 9.12844C27.7919 10.4623 28.4079 12.1316 28.4079 13.9092C28.4079 14.2964 28.3776 14.6836 28.3177 15.065C24.281 14.7566 21.2507 13.3826 19.067 10.8749C18.9301 10.7182 18.7201 10.6468 18.5158 10.6903C18.3124 10.733 18.1475 10.8831 18.086 11.0816C17.3747 13.3637 15.931 14.6606 13.6784 15.0322C13.6218 14.6614 13.5939 14.2857 13.5939 13.9092C13.5915 12.0775 14.2748 10.3138 15.488 8.96109ZM15.219 19.3766C15.1656 19.1223 14.9483 18.9353 14.6882 18.9213C13.9311 18.8803 13.338 18.1281 13.338 17.2093C13.338 16.8443 13.4348 16.4957 13.6103 16.2036C16.1197 15.864 17.8776 14.5614 18.8488 12.3219C21.1949 14.6344 24.4015 15.9452 28.3997 16.2241C28.5679 16.5112 28.6598 16.8525 28.6598 17.2093C28.6598 18.1281 28.0667 18.8803 27.3095 18.9213C27.0495 18.9353 26.8321 19.1223 26.7788 19.3766C26.0848 22.6849 23.911 24.7406 21.1055 24.7406C18.2574 24.7406 15.8916 22.5848 15.219 19.3766ZM21.1055 25.8891C22.0776 25.8891 22.9922 25.6782 23.8208 25.2861L24.2079 26.6265L20.9989 30.9487L17.789 26.6265L18.1951 25.2213C19.0835 25.6536 20.067 25.8891 21.1055 25.8891ZM24.249 28.4985L24.2063 33.0529C24.2063 33.0701 24.1694 33.0898 24.1653 33.0922C24.1349 33.1086 24.1169 33.1078 24.0874 33.0906L21.8389 31.7453L24.249 28.4985ZM20.1597 31.7445L17.9112 33.0898C17.8817 33.1078 17.8636 33.1078 17.8333 33.0914C17.8292 33.0889 17.7923 33.0693 17.7923 33.052L17.7496 28.4977L20.1597 31.7445ZM5.77634 40.1133L6.90591 34.2333C7.35708 31.8823 8.91486 30.0882 11.1748 29.3122L16.5913 27.492L16.643 33.0643C16.6471 33.5032 16.8908 33.8929 17.2943 34.107C17.4765 34.2038 17.6733 34.2513 17.871 34.2513C18.0884 34.2513 18.3058 34.1923 18.501 34.0758L20.9989 32.5812L23.4967 34.0758C23.692 34.1931 23.9094 34.2513 24.1267 34.2513C24.3236 34.2513 24.5213 34.2029 24.7026 34.107C25.1062 33.8929 25.3498 33.5024 25.3539 33.0643L25.4056 27.492L30.818 29.3114C33.0821 30.0891 34.639 31.8831 35.091 34.2341L36.2214 40.1133H5.77634ZM18.8275 5.57484C18.8275 5.25738 19.0843 5.00063 19.4017 5.00063H20.537V3.86531C20.537 3.54785 20.7938 3.29109 21.1113 3.29109C21.4287 3.29109 21.6855 3.54785 21.6855 3.86531V5.00063H22.8208C23.1383 5.00063 23.395 5.25738 23.395 5.57484C23.395 5.8923 23.1383 6.14906 22.8208 6.14906H21.6855V7.28438C21.6855 7.60184 21.4287 7.85859 21.1113 7.85859C20.7938 7.85859 20.537 7.60184 20.537 7.28438V6.14906H19.4017C19.0843 6.14906 18.8275 5.8923 18.8275 5.57484ZM32.0165 35.5515C32.0165 35.869 31.7597 36.1257 31.4423 36.1257H30.307V37.2611C30.307 37.5785 30.0502 37.8353 29.7327 37.8353C29.4153 37.8353 29.1585 37.5785 29.1585 37.2611V36.1257H28.0232C27.7058 36.1257 27.449 35.869 27.449 35.5515C27.449 35.2341 27.7058 34.9773 28.0232 34.9773H29.1585V33.842C29.1585 33.5245 29.4153 33.2678 29.7327 33.2678C30.0502 33.2678 30.307 33.5245 30.307 33.842V34.9773H31.4423C31.7597 34.9773 32.0165 35.2341 32.0165 35.5515Z" fill="#DE4E95" stroke="#DE4E95" stroke-width="0.5"/>
</svg>
