<svg width="49" height="49" viewBox="0 0 49 49" fill="none" xmlns="http://www.w3.org/2000/svg">
<path d="M27.1006 0.25C29.6555 0.25 31.7489 2.40481 31.749 5.07129V5.07617C31.7758 6.5817 31.0536 8.06333 29.749 9.52637C28.4709 10.9596 26.6521 12.3514 24.499 13.7031C22.1286 12.2195 20.3171 10.7783 19.0977 9.35352C17.8567 7.90359 17.2404 6.48736 17.25 5.07324V5.07129C17.25 2.4049 19.3436 0.250125 21.8984 0.25C22.778 0.25 23.6308 0.509063 24.3633 0.984375L24.5 1.07324L24.6357 0.984375C25.3681 0.508994 26.2209 0.250021 27.1006 0.25ZM27.1006 2.73438C26.4646 2.67961 25.9019 3.07066 25.457 3.49805C25.0963 3.84464 24.76 4.26606 24.4961 4.58984C24.3931 4.46494 24.2853 4.33107 24.1699 4.18945C23.9854 3.96287 23.7839 3.72405 23.5635 3.50879C23.1269 3.08255 22.5835 2.7159 21.8984 2.73438C20.641 2.7345 19.6328 3.79101 19.6328 5.07129C19.6328 6.24146 20.5578 8.0638 24.3584 10.6709L24.5 10.7676L24.6406 10.6709C28.4413 8.0638 29.3662 6.24146 29.3662 5.07129C29.3662 3.79094 28.3581 2.73438 27.1006 2.73438Z" fill="#DE4E95" stroke="white" stroke-width="0.5"/>
<path d="M12.9678 10.25C17.5949 10.25 21.3612 14.0237 21.3613 18.6631C21.3613 21.3897 20.0601 23.8176 18.0469 25.3564L17.7119 25.6123L18.0977 25.7832C19.3819 26.3531 20.5551 27.1304 21.5752 28.0723L21.6934 28.1816L21.8408 28.1201C22.6604 27.7786 23.5584 27.5889 24.5 27.5889C26.2935 27.5889 27.9302 28.273 29.165 29.3955L29.3037 29.5215L29.4639 29.4248C29.925 29.1448 30.4053 28.8934 30.9023 28.6729L31.2881 28.502L30.9531 28.2461C28.9402 26.7071 27.6396 24.2791 27.6396 21.5527C27.6398 16.9135 31.4052 13.1397 36.0322 13.1396C40.6593 13.1396 44.4256 16.9133 44.4258 21.5527C44.4258 24.2792 43.1243 26.7072 41.1113 28.2461L40.7764 28.502L41.1621 28.6729C45.6272 30.6539 48.75 35.137 48.75 40.3369V48.75H0.25V37.4473C0.25 32.2475 3.37265 27.7642 7.83789 25.7832L8.22363 25.6123L7.88867 25.3564C5.87567 23.8175 4.5752 21.3895 4.5752 18.6631C4.57532 14.0238 8.34069 10.2501 12.9678 10.25ZM12.9678 27.0762C7.26181 27.0762 2.62109 31.7294 2.62109 37.4473V46.3721H16.1885L16.2236 46.1631C16.6322 43.7246 18.0907 41.6377 20.1172 40.3887L20.418 40.2031L20.1436 39.9814C18.5619 38.7023 17.5488 36.7461 17.5488 34.5566C17.5489 32.6912 18.2846 30.9957 19.4805 29.7432L19.668 29.5469L19.457 29.376C17.6813 27.9388 15.4231 27.0762 12.9678 27.0762ZM24.5 41.5254C21.6951 41.5254 19.3333 43.4568 18.666 46.0605L18.5859 46.3721H30.4141L30.334 46.0605C29.6667 43.4568 27.3049 41.5254 24.5 41.5254ZM36.0322 29.9668C34.1728 29.9668 32.4266 30.4619 30.917 31.3262L30.7188 31.4395L30.8145 31.6475C31.2225 32.5335 31.4521 33.5183 31.4521 34.5566C31.4521 36.7461 30.438 38.7024 28.8564 39.9814L28.582 40.2031L28.8828 40.3887C30.9093 41.6377 32.3678 43.7246 32.7764 46.1631L32.8115 46.3721H46.3789V40.3369C46.3789 34.6191 41.7382 29.9668 36.0322 29.9668ZM24.5 29.9668C21.9736 29.9668 19.9202 32.0259 19.9199 34.5566C19.9199 37.0876 21.9735 39.1475 24.5 39.1475C27.0265 39.1475 29.0811 37.0876 29.0811 34.5566C29.0808 32.0258 27.0264 29.9668 24.5 29.9668ZM36.0322 15.5176C32.711 15.5176 30.0099 18.2251 30.0098 21.5527C30.0098 24.8805 32.7109 27.5889 36.0322 27.5889C39.3536 27.5889 42.0547 24.8804 42.0547 21.5527C42.0545 18.2252 39.3535 15.5176 36.0322 15.5176ZM12.9678 12.6279C9.64641 12.6279 6.94539 15.3354 6.94531 18.6631C6.94531 21.9908 9.64646 24.6992 12.9678 24.6992C16.2891 24.6992 18.9902 21.9907 18.9902 18.6631C18.9902 15.3355 16.2891 12.6279 12.9678 12.6279Z" fill="#DE4E95" stroke="white" stroke-width="0.5"/>
</svg>
