<svg width="54" height="52" viewBox="0 0 54 52" fill="none" xmlns="http://www.w3.org/2000/svg">
<path d="M28.9463 38.1494L21.126 45.6797L12.9863 37.8398L12.8076 37.6689L12.5684 37.7266L6.37988 39.2236C4.23577 39.7423 2.71875 41.5996 2.71875 43.7568V49.3984H8.27051L8.26953 48.9473L8.25684 45.2451L10.5205 45.2383L10.5332 48.9492L10.5352 49.3984H38.9053L38.1016 48.624L31.5938 42.3574C30.4566 41.2623 29.8302 39.864 29.707 38.4346L29.626 37.4951L28.9463 38.1494ZM46.9941 33.7666C45.8556 33.7667 44.7798 34.1947 43.9697 34.9746L41.6143 37.2422L39.2607 34.9746C38.4506 34.1945 37.3741 33.7666 36.2354 33.7666C35.0965 33.7666 34.0201 34.1945 33.21 34.9746C31.5305 36.592 31.5306 39.2302 33.21 40.8477L41.3027 48.6406L41.6152 48.9414L41.9268 48.6406L50.0195 40.8477C50.8303 40.0669 51.2811 39.0226 51.2812 37.9111C51.2812 36.7995 50.8302 35.7553 50.0195 34.9746C49.2093 34.1944 48.1329 33.7666 46.9941 33.7666ZM19.0654 36.1553L16.1445 36.8623L15.3477 37.0547L15.9375 37.623L20.8145 42.3193L21.127 42.6201L21.4395 42.3193L26.1895 37.7451L26.748 37.207L26.0039 36.9893L23.0947 36.1367V32.3184L22.5898 32.3809C22.0976 32.4417 21.5985 32.4746 21.0938 32.4746C20.58 32.4746 20.0718 32.4409 19.5713 32.3779L19.0654 32.3145V36.1553ZM16.9971 14.0059C14.2712 14.006 12.0004 16.0414 11.7793 18.6504L11.7783 18.666V18.6826L11.7607 20.1338H10.5947C9.69024 20.1338 8.926 20.8453 8.92578 21.7568C8.92578 22.6682 9.68949 23.3806 10.5938 23.3809H11.9697L12.2217 24.126C13.4824 27.8441 17.0546 30.3281 21.0938 30.3281C25.1329 30.3281 28.7051 27.8441 29.9658 24.126L30.2178 23.3809H31.5928C32.4973 23.3809 33.2617 22.6685 33.2617 21.7568C33.2616 20.8453 32.4972 20.1328 31.5928 20.1328H30.4619L30.4609 19.0605C30.4583 16.2571 28.0939 14.0061 25.2246 14.0059H16.9971ZM21.1191 8.22949C18.1712 8.22963 15.5364 9.55558 13.8223 11.624L12.7549 12.9121L14.3242 12.334C15.1549 12.0278 16.0557 11.8584 16.9971 11.8584H25.2246C26.175 11.8584 27.084 12.0307 27.9209 12.3418L29.4932 12.9268L28.4248 11.6338C26.7109 9.56001 24.0717 8.22949 21.1191 8.22949ZM21.1191 2.59668C18.6912 2.59688 16.6335 4.21123 16.0615 6.40723L15.8369 7.27051L16.6641 6.93848C18.0359 6.38796 19.5407 6.08208 21.1191 6.08203C22.6977 6.08203 24.2024 6.38798 25.5742 6.93848L26.4023 7.27051L26.1777 6.40723C25.6058 4.21107 23.5473 2.59668 21.1191 2.59668ZM16.7969 31.6914L16.5176 31.5762C13.8323 30.4712 11.642 28.4127 10.4502 25.7598L10.3467 25.5283L10.0947 25.498L9.91309 25.4717C8.05648 25.16 6.66138 23.601 6.66113 21.7578C6.66113 20.1538 7.71637 18.7669 9.2168 18.2266L9.51367 18.1191V17.2412C9.51375 13.8824 11.0662 10.8615 13.5254 8.81055L13.7109 8.65527L13.6836 8.41504C13.6546 8.15603 13.6397 7.89605 13.6396 7.63672C13.6396 3.69057 16.9791 0.450429 21.1191 0.450195C25.2594 0.450195 28.5997 3.69043 28.5996 7.63672C28.5996 7.89519 28.5837 8.1548 28.5547 8.41406L28.5273 8.65527L28.7139 8.81055C31.1731 10.8615 32.7246 13.8824 32.7246 17.2412V18.1338L33.0176 18.2432C34.4932 18.7952 35.5262 20.1695 35.5264 21.7568C35.5264 23.6598 34.0394 25.2604 32.0928 25.498L31.8408 25.5283L31.7363 25.7598C30.5401 28.4226 28.3388 30.487 25.6396 31.5889L25.3594 31.7031V34.5537L25.6826 34.6484L29.6191 35.8018L30.0049 35.9141L30.1611 35.5439C30.479 34.7886 30.9558 34.0791 31.5938 33.4648C34.1509 31.0026 38.3198 31.0024 40.877 33.4648L41.3027 33.875L41.6143 34.1758L41.9268 33.875L42.3525 33.4648C43.5901 32.2731 45.237 31.6153 46.9941 31.6152C48.7512 31.6152 50.3982 32.2732 51.6357 33.4648C52.8728 34.6559 53.5498 36.2342 53.5498 37.9111C53.5498 39.5881 52.8729 41.1662 51.6357 42.3574L42.0898 51.5498H0.450195V43.7568C0.450195 40.6351 2.64679 37.9061 5.81934 37.1387L16.4521 34.5674L16.7969 34.4834V31.6914Z" fill="#DE4E95" stroke="white" stroke-width="0.9"/>
</svg>
