<svg width="42" height="42" viewBox="0 0 42 42" fill="none" xmlns="http://www.w3.org/2000/svg">
<path d="M34.7313 3H9.8863C8.08177 3.00195 6.61934 4.344 6.61722 6V36C6.61722 36.9941 5.73906 37.8 4.65577 37.8C4.2947 37.8 4.00195 38.0687 4.00195 38.4C4.00195 38.7313 4.2947 39 4.65577 39H29.5008C31.3053 38.9981 32.7677 37.656 32.7699 36V6.6H37.3466C37.7076 6.6 38.0004 6.33135 38.0004 6C37.9983 4.344 36.5358 3.00195 34.7313 3ZM31.4622 6V36C31.4622 36.9941 30.5841 37.8 29.5008 37.8H7.27103C7.69659 37.2812 7.92616 36.6493 7.92485 36V6C7.92485 5.00588 8.80301 4.2 9.8863 4.2H32.116C31.6905 4.7187 31.4609 5.35073 31.4622 6ZM32.8902 5.4C33.1662 4.68338 33.9031 4.20315 34.7313 4.2C35.5623 4.2009 36.3028 4.68135 36.581 5.4H32.8902Z" fill="#DE4E95" stroke="#DE4E95" stroke-width="0.5"/>
<path d="M30.1544 10.2001H17.0781V11.4001H30.1544V10.2001Z" fill="#DE4E95" stroke="#DE4E95" stroke-width="0.5"/>
<path d="M30.1544 12.6H17.0781V13.8H30.1544V12.6Z" fill="#DE4E95" stroke="#DE4E95" stroke-width="0.5"/>
<path d="M22.3087 15H17.0781V16.2H22.3087V15Z" fill="#DE4E95" stroke="#DE4E95" stroke-width="0.5"/>
<path d="M15.1168 18.6H9.88624C9.52517 18.6 9.23242 18.8686 9.23242 19.2V24C9.23242 24.3313 9.52517 24.6 9.88624 24.6H15.1168C15.4778 24.6 15.7706 24.3313 15.7706 24V19.2C15.7706 18.8686 15.4778 18.6 15.1168 18.6ZM14.463 23.4H10.5401V19.8H14.463V23.4Z" fill="#DE4E95" stroke="#DE4E95" stroke-width="0.5"/>
<path d="M30.1544 18.6H17.0781V19.8H30.1544V18.6Z" fill="#DE4E95" stroke="#DE4E95" stroke-width="0.5"/>
<path d="M30.1544 21H17.0781V22.2H30.1544V21Z" fill="#DE4E95" stroke="#DE4E95" stroke-width="0.5"/>
<path d="M28.8468 23.4H17.0781V24.6H28.8468V23.4Z" fill="#DE4E95" stroke="#DE4E95" stroke-width="0.5"/>
<path d="M15.1168 27H9.88624C9.52517 27 9.23242 27.2686 9.23242 27.6V32.4C9.23242 32.7314 9.52517 33 9.88624 33H15.1168C15.4778 33 15.7706 32.7314 15.7706 32.4V27.6C15.7706 27.2686 15.4778 27 15.1168 27ZM14.463 31.8H10.5401V28.2H14.463V31.8Z" fill="#DE4E95" stroke="#DE4E95" stroke-width="0.5"/>
<path d="M30.1544 27H17.0781V28.2H30.1544V27Z" fill="#DE4E95" stroke="#DE4E95" stroke-width="0.5"/>
<path d="M26.8854 29.4H17.0781V30.6H26.8854V29.4Z" fill="#DE4E95" stroke="#DE4E95" stroke-width="0.5"/>
<path d="M22.9625 31.7999H17.0781V32.9999H22.9625V31.7999Z" fill="#DE4E95" stroke="#DE4E95" stroke-width="0.5"/>
<path d="M9.23242 10.8V15.6C9.23242 15.9314 9.52517 16.2 9.88624 16.2H15.1168C15.4778 16.2 15.7706 15.9314 15.7706 15.6V11.28L17.5705 9.39482L16.5859 8.60522L15.0651 10.2H9.88624C9.52517 10.2 9.23242 10.4687 9.23242 10.8ZM10.5401 11.4H13.9209L12.4695 12.9222L11.6561 12.1758L10.7316 13.0242L12.0393 14.2242C12.1618 14.3367 12.3281 14.4 12.5015 14.4H12.5231C12.7041 14.3946 12.8746 14.3205 12.9938 14.1954L14.463 12.654V15H10.5401V11.4Z" fill="#DE4E95" stroke="#DE4E95" stroke-width="0.5"/>
</svg>
