<svg width="42" height="42" viewBox="0 0 42 42" fill="none" xmlns="http://www.w3.org/2000/svg">
<path d="M11.3242 13.7813C12.4275 13.7813 13.5059 13.4541 14.4233 12.8412C15.3406 12.2282 16.0555 11.3571 16.4777 10.3378C16.8999 9.31851 17.0104 8.19694 16.7952 7.11489C16.5799 6.03284 16.0487 5.03891 15.2685 4.2588C14.4884 3.47868 13.4945 2.94742 12.4125 2.73218C11.3304 2.51695 10.2088 2.62742 9.18956 3.04961C8.17029 3.47181 7.29911 4.18677 6.68618 5.10409C6.07325 6.02141 5.74609 7.09988 5.74609 8.20313C5.74785 9.682 6.33611 11.0998 7.38183 12.1455C8.42755 13.1912 9.84535 13.7795 11.3242 13.7813ZM11.3242 3.9375C12.1679 3.9375 12.9926 4.18768 13.6941 4.65639C14.3956 5.1251 14.9423 5.7913 15.2651 6.57074C15.588 7.35018 15.6725 8.20786 15.5079 9.03531C15.3433 9.86276 14.937 10.6228 14.3405 11.2194C13.7439 11.8159 12.9839 12.2222 12.1564 12.3868C11.329 12.5514 10.4713 12.4669 9.69183 12.1441C8.91239 11.8212 8.24619 11.2745 7.77748 10.573C7.30877 9.8715 7.05859 9.04679 7.05859 8.20313C7.0599 7.07221 7.50973 5.988 8.30941 5.18832C9.10909 4.38864 10.1933 3.93881 11.3242 3.9375Z" fill="#DE4E95" stroke="#DE4E95" stroke-width="0.5"/>
<path d="M30.6648 13.7813C31.7508 13.7813 32.8124 13.4592 33.7154 12.8559C34.6184 12.2525 35.3222 11.3949 35.7378 10.3916C36.1534 9.38825 36.2621 8.2842 36.0503 7.21905C35.8384 6.15391 35.3154 5.17551 34.5475 4.40759C33.7796 3.63966 32.8012 3.1167 31.736 2.90483C30.6709 2.69296 29.5668 2.8017 28.5635 3.21729C27.5601 3.63289 26.7026 4.33668 26.0992 5.23967C25.4959 6.14265 25.1738 7.20428 25.1738 8.29029C25.1756 9.74605 25.7546 11.1417 26.784 12.1711C27.8134 13.2005 29.209 13.7795 30.6648 13.7813ZM30.6648 4.11183C31.4912 4.11183 32.2991 4.35689 32.9862 4.81602C33.6734 5.27516 34.2089 5.92775 34.5252 6.69126C34.8415 7.45478 34.9242 8.29493 34.763 9.10547C34.6017 9.91602 34.2038 10.6605 33.6194 11.2449C33.035 11.8293 32.2905 12.2272 31.48 12.3885C30.6694 12.5497 29.8293 12.467 29.0658 12.1507C28.3022 11.8344 27.6497 11.2989 27.1905 10.6117C26.7314 9.92457 26.4863 9.11671 26.4863 8.29029C26.4876 7.18248 26.9283 6.12042 27.7116 5.33708C28.4949 4.55375 29.557 4.11311 30.6648 4.11183Z" fill="#DE4E95" stroke="#DE4E95" stroke-width="0.5"/>
<path d="M23.1945 15.6571C22.5187 15.2868 21.7603 15.093 20.9896 15.0938C20.2189 15.0945 19.4609 15.2897 18.7857 15.6613C9.54553 11.4552 1.17725 22.2695 8.09809 30.2193C12.3079 35.4921 20.2705 39.1139 20.7257 39.318C20.81 39.3555 20.9013 39.3749 20.9936 39.3749C21.0859 39.3749 21.1771 39.3555 21.2615 39.318C21.6319 39.2412 30.5808 34.9169 34.3005 29.6836C40.5727 21.8204 31.9862 11.4848 23.1945 15.6571ZM24.2748 19.6875C24.2748 20.3365 24.0824 20.9709 23.7218 21.5105C23.3613 22.0501 22.8488 22.4706 22.2493 22.719C21.6497 22.9673 20.9899 23.0323 20.3534 22.9057C19.7169 22.7791 19.1323 22.4666 18.6734 22.0077C18.2145 21.5488 17.902 20.9642 17.7754 20.3277C17.6488 19.6912 17.7137 19.0314 17.9621 18.4318C18.2105 17.8323 18.631 17.3198 19.1706 16.9593C19.7102 16.5987 20.3446 16.4063 20.9936 16.4063C21.8635 16.4073 22.6975 16.7533 23.3126 17.3685C23.9278 17.9836 24.2738 18.8176 24.2748 19.6875ZM27.3254 33.5098C27.496 33.6762 27.6913 33.815 27.9046 33.9213C25.7187 35.4696 23.4069 36.8321 20.9936 37.9946C18.58 36.8321 16.268 35.4694 14.0819 33.9208C14.2963 33.8139 14.4928 33.6744 14.6644 33.5072C14.9155 33.2399 15.1024 32.9188 15.2106 32.5683C15.3189 32.2179 15.3457 31.8473 15.2891 31.4849C15.2324 31.1225 15.0938 30.7779 14.8838 30.4772C14.6737 30.1765 14.3978 29.9277 14.0771 29.7498C15.9205 27.9294 18.4064 26.9079 20.9972 26.9063C23.5879 26.9046 26.0751 27.9229 27.9209 29.7408C27.5981 29.9182 27.3202 30.1671 27.1085 30.4684C26.8967 30.7698 26.7568 31.1156 26.6993 31.4794C26.6418 31.8431 26.6684 32.2153 26.7769 32.5672C26.8854 32.9191 27.0731 33.2416 27.3254 33.5098ZM29.5579 32.6607C29.3544 32.8157 29.0985 32.8854 28.8444 32.8553C28.5904 32.8251 28.358 32.6973 28.1964 32.499C28.0347 32.3006 27.9566 32.0472 27.9783 31.7923C28.0001 31.5373 28.1201 31.3009 28.313 31.1328C32.6181 27.4909 34.4856 24.5445 32.223 20.6328C32.1247 20.4916 31.9749 20.3946 31.8057 20.3627C31.6366 20.3309 31.4618 20.3667 31.3188 20.4624C31.1758 20.5582 31.0761 20.7063 31.0412 20.8748C31.0063 21.0433 31.0389 21.2187 31.1321 21.3634C32.7276 24.1176 31.6455 26.145 28.8969 28.8634C24.7479 24.5332 17.2448 24.5491 13.1006 28.8731C10.3438 26.1517 9.25833 24.1209 10.8556 21.3634C10.9036 21.2918 10.9369 21.2114 10.9538 21.1269C10.9707 21.0424 10.9707 20.9554 10.954 20.8709C10.9372 20.7864 10.9039 20.706 10.856 20.6343C10.8082 20.5627 10.7466 20.5012 10.6749 20.4534C9.3852 19.7453 8.75723 23.0126 8.81382 23.914C8.81386 26.0757 10.4494 28.5046 13.6749 31.1328C13.779 31.2208 13.8638 31.3295 13.9237 31.452C13.9837 31.5745 14.0175 31.7081 14.023 31.8443C14.0286 31.9806 14.0057 32.1165 13.9559 32.2435C13.9062 32.3704 13.8305 32.4856 13.7338 32.5818C13.0848 33.2455 12.3117 32.6352 11.801 32.1341C9.38836 30.0142 6.90856 27.3018 6.84507 23.914C6.65148 18.3839 12.716 14.551 17.6445 16.5536C17.0315 17.2064 16.6226 18.0242 16.4682 18.9064C16.3139 19.7885 16.4207 20.6965 16.7756 21.5188C17.1305 22.341 17.718 23.0416 18.4658 23.5343C19.2136 24.0271 20.0891 24.2905 20.9847 24.2922C21.8802 24.2939 22.7568 24.0338 23.5064 23.5439C24.2561 23.054 24.8463 22.3557 25.2043 21.5348C25.5623 20.7139 25.6726 19.8063 25.5216 18.9236C25.3705 18.0408 24.9648 17.2215 24.3543 16.5663C25.482 16.1269 26.6954 15.9515 27.9015 16.0535C29.1075 16.1555 30.2743 16.5322 31.3122 17.1548C32.7054 17.9591 33.8096 19.1822 34.4678 20.6502C35.1259 22.1181 35.3045 23.7562 34.9781 25.3315C34.2486 28.3825 31.8961 30.7115 29.5579 32.6607Z" fill="#DE4E95" stroke="#DE4E95" stroke-width="0.5"/>
</svg>
