<svg width="42" height="42" viewBox="0 0 42 42" fill="none" xmlns="http://www.w3.org/2000/svg">
<g clip-path="url(#clip0_899_1279)">
<path d="M24.1945 30.45C23.932 30.45 23.757 30.275 23.757 30.0125C23.757 29.75 23.932 29.575 24.1945 29.575L34.957 29.4438C35.307 29.4438 35.5695 29.1375 35.5695 28.8313C35.5695 28 34.9133 27.3438 34.082 27.3438C30.3633 27.2125 25.682 27.0375 24.5445 26.9938C22.7508 26.9063 20.9133 26.0313 18.332 24.5438C15.882 23.1438 12.3383 23.3625 10.2383 24.2375C8.88203 24.8063 7.39453 25.1125 5.95078 25.1125C5.68828 25.1125 5.68828 24.2375 5.95078 24.2375C7.30703 24.2375 8.61953 23.9313 9.88828 23.45C12.2508 22.4875 16.1445 22.2688 18.8133 23.8C21.2633 25.2 23.0133 26.0313 24.632 26.1188C25.7695 26.1625 30.4508 26.3375 34.1695 26.4688C35.4383 26.5125 36.4883 27.5625 36.4445 28.8313C36.4445 29.6188 35.7883 30.3188 35.0008 30.3188L24.1945 30.45Z" fill="#DE4E95" stroke="#DE4E95"/>
<path d="M21.2186 35.0437C20.3436 35.0437 19.4686 34.825 18.6811 34.475C16.8436 33.7312 14.9624 33.1187 13.0374 32.5937C12.2499 32.375 11.4624 32.2875 10.7186 32.375C9.97486 32.4187 9.27486 32.6812 8.70611 33.1625C8.53111 33.3375 7.91861 32.6812 8.09361 32.55C8.79361 31.9375 9.66861 31.5437 10.6311 31.5C11.5061 31.4125 12.4249 31.5 13.2561 31.7625C15.2249 32.2875 17.1499 32.9437 19.0311 33.6875C19.8186 34.0812 20.6936 34.2125 21.5686 34.1687C24.9374 33.7312 29.2249 31.4125 32.2874 29.5312C32.5061 29.4 32.9436 30.1437 32.7686 30.275C29.6624 32.2 25.1999 34.5625 21.6999 35.0437C21.5249 35.0437 21.3499 35.0437 21.2186 35.0437Z" fill="#DE4E95" stroke="#DE4E95"/>
<path d="M35.481 27.3876L40.2497 24.1063C40.731 23.7563 40.8622 23.1001 40.5122 22.6188C40.206 22.1376 39.5497 22.0063 39.0685 22.3126L31.3685 27.0813C31.1497 27.1688 30.7997 26.4688 30.931 26.3376L38.631 21.5688C39.5497 21.0001 40.731 21.2626 41.2997 22.1813C41.8685 23.0563 41.606 24.2376 40.731 24.8063L35.9622 28.0876C35.8747 28.1313 35.3497 27.4751 35.481 27.3876Z" fill="#DE4E95" stroke="#DE4E95"/>
<path d="M27.3008 26.2063L34.7821 21.5688C35.6571 21.0438 36.7508 21.2625 37.3633 22.0938C37.5383 22.3125 37.6258 22.5313 37.6696 22.7938C37.7133 23.0563 36.8383 23.2313 36.7946 22.9688C36.7508 22.8375 36.7071 22.7063 36.6196 22.575C36.3133 22.1375 35.7008 22.0063 35.2196 22.2688L27.7821 26.95C27.6946 26.9938 27.0821 26.3375 27.3008 26.2063Z" fill="#DE4E95" stroke="#DE4E95"/>
<path d="M24.3686 26.1187L31.3249 21.8312C32.1999 21.3062 33.2936 21.525 33.9061 22.3125C33.9499 22.4 33.2499 22.8812 33.2061 22.8375C32.8999 22.4 32.2436 22.2687 31.8061 22.575L24.8499 26.8625C24.7624 26.9062 24.2374 26.2062 24.3686 26.1187Z" fill="#DE4E95" stroke="#DE4E95"/>
<path d="M4.33215 37.7126C4.06965 37.7126 3.89465 37.4938 3.89465 37.2751C3.89465 37.1438 3.98215 37.0126 4.1134 36.9251L8.35715 34.2126L5.2509 23.8876L1.09465 26.3813C0.919651 26.5126 0.613401 26.5126 0.482151 26.2938C0.350901 26.1188 0.350901 25.8126 0.569651 25.6813C0.613401 25.6376 0.657151 25.6376 0.657151 25.6376L5.29465 22.8813C5.5134 22.7501 5.7759 22.8376 5.90715 23.0126C5.90715 23.0563 5.9509 23.1001 5.9509 23.1001L9.2759 34.3001C9.31965 34.4751 9.2759 34.6938 9.1009 34.7813L4.5509 37.6688C4.50715 37.7126 4.41965 37.7126 4.33215 37.7126Z" fill="#DE4E95" stroke="#DE4E95"/>
<path d="M24.7191 21.2188C20.4316 21.2188 16.9316 17.7188 16.9316 13.4313C16.9316 9.1438 20.4316 5.6438 24.7191 5.6438C29.0066 5.6438 32.5066 9.1438 32.5066 13.4313C32.4629 17.7625 29.0066 21.2188 24.7191 21.2188ZM24.7191 6.56255C20.9129 6.56255 17.8066 9.6688 17.8066 13.475C17.8066 17.2813 20.9129 20.3875 24.7191 20.3875C28.5254 20.3875 31.6316 17.2813 31.6316 13.475C31.5879 9.6688 28.5254 6.56255 24.7191 6.56255Z" fill="#DE4E95" stroke="#DE4E95"/>
<path d="M24.7184 18.3313C23.2746 18.3313 22.0934 17.15 22.0934 15.7063C22.0934 15.4438 22.2684 15.2688 22.5309 15.2688C22.7934 15.2688 22.9684 15.4438 22.9684 15.7063C22.9684 16.6688 23.7559 17.4563 24.7184 17.4125C25.6809 17.3688 26.4684 16.625 26.4246 15.6625C26.4246 14.7 25.6371 13.9563 24.6746 13.9125C23.2309 13.9125 22.0059 12.7313 22.0059 11.2875C22.0059 9.84377 23.1871 8.61877 24.6309 8.61877C26.0746 8.61877 27.2996 9.80002 27.2996 11.2438C27.2996 11.5063 27.1246 11.6813 26.8621 11.6813C26.5996 11.6813 26.4246 11.5063 26.4246 11.2438C26.4246 10.2813 25.6371 9.45002 24.6746 9.45002C23.7121 9.45002 22.9246 10.2375 22.8809 11.2C22.8809 12.1625 23.6684 12.9938 24.6309 12.9938C26.0746 12.9938 27.2996 14.175 27.2996 15.6188C27.3434 17.15 26.1621 18.3313 24.7184 18.3313Z" fill="#DE4E95" stroke="#DE4E95"/>
<path d="M24.7188 9.45C24.4562 9.45 24.2812 9.275 24.2812 9.0125V8.3125C24.2812 8.05 24.4562 7.875 24.7188 7.875C24.9812 7.875 25.1562 8.05 25.1562 8.3125V9.05625C25.1125 9.275 24.9375 9.49375 24.7188 9.45Z" fill="#DE4E95" stroke="#DE4E95"/>
<path d="M24.7188 19.075C24.4562 19.075 24.2812 18.9 24.2812 18.6375V17.8938C24.2812 17.6313 24.4562 17.4563 24.7188 17.4563C24.9812 17.4563 25.1562 17.6313 25.1562 17.8938V18.6375C25.1562 18.8563 24.9375 19.075 24.7188 19.075Z" fill="#DE4E95" stroke="#DE4E95"/>
</g>
<defs>
<clipPath id="clip0_899_1279">
<rect width="42" height="42" fill="white"/>
</clipPath>
</defs>
</svg>
