<svg width="42" height="42" viewBox="0 0 42 42" fill="none" xmlns="http://www.w3.org/2000/svg">
<path d="M37.4817 40.5792L36.2217 34.0167C35.6902 31.2506 33.8584 29.14 31.1908 28.2237L25.2952 26.2418L24.844 24.6807C25.3345 24.3247 25.7824 23.8949 26.1803 23.4011C26.9563 23.958 27.8849 24.2591 28.8545 24.2591C31.3876 24.2591 33.4483 22.1985 33.4483 19.6654C33.4483 17.3422 31.7141 15.417 29.4722 15.1143C29.528 14.7164 29.5567 14.3136 29.5567 13.9109C29.5567 11.6771 28.7151 9.59109 27.1794 7.9923L28.5518 4.9875C28.6347 4.80539 28.6174 4.59293 28.5051 4.42723C26.9432 2.11723 24.1804 0.738281 21.1132 0.738281C18.0461 0.738281 15.2824 2.11723 13.7214 4.42641C13.609 4.59211 13.5918 4.80457 13.6746 4.98668L14.9765 7.83645C13.3629 9.4377 12.4458 11.6279 12.4458 13.9109C12.4458 14.4875 12.504 15.0634 12.6189 15.6261C12.3416 16.0929 12.1923 16.6417 12.1923 17.2093C12.1923 18.5686 13.0389 19.7129 14.1873 20.0017C14.6861 21.9745 15.759 23.5766 17.179 24.6094L16.7073 26.2426L10.8076 28.2253C8.14408 29.14 6.3115 31.2514 5.77994 34.0175L4.51994 40.58C4.48794 40.7482 4.53224 40.9221 4.64134 41.0542C4.75044 41.1862 4.91287 41.2625 5.08431 41.2625H36.919C37.0904 41.2625 37.2529 41.1862 37.362 41.0542C37.4711 40.9221 37.5145 40.7474 37.4817 40.5792ZM32.2998 19.6645C32.2998 21.5644 30.7544 23.1098 28.8545 23.1098C28.1203 23.1098 27.4165 22.8785 26.8316 22.4536C27.2565 21.7284 27.5904 20.9057 27.816 20C28.9644 19.7113 29.8102 18.5678 29.8102 17.2077C29.8102 16.9034 29.7667 16.6039 29.6838 16.3201C31.1842 16.6934 32.2998 18.051 32.2998 19.6645ZM21.1132 1.88672C23.68 1.88672 25.9933 2.97363 27.3697 4.81113L25.3362 9.26379H16.8902L14.8567 4.81113C16.2332 2.97363 18.5465 1.88672 21.1132 1.88672ZM15.49 8.96109L15.9994 10.0759C16.0929 10.2802 16.2972 10.4114 16.5219 10.4114H25.7053C25.9301 10.4114 26.1344 10.2802 26.2279 10.0759L26.661 9.12844C27.7938 10.4623 28.4099 12.1316 28.4099 13.9092C28.4099 14.2964 28.3795 14.6836 28.3197 15.065C24.2829 14.7566 21.2527 13.3826 19.069 10.8749C18.932 10.7182 18.722 10.6468 18.5177 10.6903C18.3143 10.733 18.1494 10.8831 18.0879 11.0816C17.3767 13.3637 15.9329 14.6606 13.6804 15.0322C13.6238 14.6614 13.5959 14.2857 13.5959 13.9092C13.5934 12.0775 14.2767 10.3138 15.49 8.96109ZM15.2209 19.3766C15.1676 19.1223 14.9502 18.9353 14.6902 18.9213C13.933 18.8803 13.3399 18.1281 13.3399 17.2093C13.3399 16.8443 13.4367 16.4957 13.6123 16.2036C16.1216 15.864 17.8795 14.5614 18.8508 12.3219C21.1969 14.6344 24.4035 15.9452 28.4017 16.2241C28.5699 16.5112 28.6617 16.8525 28.6617 17.2093C28.6617 18.1281 28.0686 18.8803 27.3115 18.9213C27.0515 18.9353 26.8341 19.1223 26.7808 19.3766C26.0868 22.6849 23.9129 24.7406 21.1075 24.7406C18.2593 24.7406 15.8936 22.5848 15.2209 19.3766ZM21.1075 25.8891C22.0795 25.8891 22.9942 25.6782 23.8227 25.2861L24.2099 26.6265L21.0008 30.9487L17.791 26.6265L18.197 25.2213C19.0854 25.6536 20.069 25.8891 21.1075 25.8891ZM24.2509 28.4985L24.2083 33.0529C24.2083 33.0701 24.1713 33.0898 24.1672 33.0922C24.1369 33.1086 24.1188 33.1078 24.0893 33.0906L21.8408 31.7453L24.2509 28.4985ZM20.1617 31.7445L17.9132 33.0898C17.8836 33.1078 17.8656 33.1078 17.8352 33.0914C17.8311 33.0889 17.7942 33.0693 17.7942 33.052L17.7516 28.4977L20.1617 31.7445ZM5.7783 40.1133L6.90787 34.2333C7.35904 31.8823 8.91681 30.0882 11.1768 29.3122L16.5933 27.492L16.645 33.0643C16.6491 33.5032 16.8927 33.8929 17.2963 34.107C17.4784 34.2038 17.6753 34.2513 17.873 34.2513C18.0904 34.2513 18.3077 34.1923 18.503 34.0758L21.0008 32.5812L23.4987 34.0758C23.6939 34.1931 23.9113 34.2513 24.1287 34.2513C24.3256 34.2513 24.5233 34.2029 24.7045 34.107C25.1081 33.8929 25.3518 33.5024 25.3559 33.0643L25.4076 27.492L30.82 29.3114C33.084 30.0891 34.641 31.8831 35.093 34.2341L36.2234 40.1133H5.7783ZM18.8295 5.57484C18.8295 5.25738 19.0862 5.00063 19.4037 5.00063H20.539V3.86531C20.539 3.54785 20.7958 3.29109 21.1132 3.29109C21.4307 3.29109 21.6874 3.54785 21.6874 3.86531V5.00063H22.8227C23.1402 5.00063 23.397 5.25738 23.397 5.57484C23.397 5.8923 23.1402 6.14906 22.8227 6.14906H21.6874V7.28438C21.6874 7.60184 21.4307 7.85859 21.1132 7.85859C20.7958 7.85859 20.539 7.60184 20.539 7.28438V6.14906H19.4037C19.0862 6.14906 18.8295 5.8923 18.8295 5.57484ZM32.0185 35.5515C32.0185 35.869 31.7617 36.1257 31.4442 36.1257H30.3089V37.2611C30.3089 37.5785 30.0522 37.8353 29.7347 37.8353C29.4172 37.8353 29.1605 37.5785 29.1605 37.2611V36.1257H28.0252C27.7077 36.1257 27.451 35.869 27.451 35.5515C27.451 35.2341 27.7077 34.9773 28.0252 34.9773H29.1605V33.842C29.1605 33.5245 29.4172 33.2678 29.7347 33.2678C30.0522 33.2678 30.3089 33.5245 30.3089 33.842V34.9773H31.4442C31.7617 34.9773 32.0185 35.2341 32.0185 35.5515Z" fill="#DE4E95" stroke="#DE4E95" stroke-width="0.5"/>
</svg>
