<svg width="40" height="36" viewBox="0 0 40 36" fill="none" xmlns="http://www.w3.org/2000/svg">
<path d="M2.86523 24.9366L8.56148 24.5231C8.56148 24.5231 11.5934 21.6225 14.704 19.6735C15.2946 19.306 15.8918 18.9647 16.4627 18.6891C19.4027 17.2847 20.9712 15.7819 21.6274 15.0272C21.8768 14.745 22.369 14.6138 22.6184 14.9025C24.1343 16.681 23.4912 18.3872 22.4018 19.68C21.7718 20.4281 20.9909 21.0385 20.3871 21.4519C20.0262 21.6947 20.118 22.2394 20.5315 22.3706L22.4477 22.9613C22.7365 23.0466 23.0449 23.0531 23.3337 22.9613C25.3155 22.3116 27.1334 20.9794 28.4984 19.68" stroke="#DE4E95" stroke-width="2" stroke-miterlimit="10" stroke-linecap="round" stroke-linejoin="round"/>
<path d="M5.50391 34.4588C5.50391 34.4588 20.4073 30.5081 24.417 29.3991C28.4202 28.29 30.7236 24.615 30.7236 24.615L33.9983 19.6735" stroke="#DE4E95" stroke-width="2" stroke-miterlimit="10" stroke-linecap="round" stroke-linejoin="round"/>
<path d="M21.8839 7.75605C21.8839 7.75605 21.4377 6.7323 19.7249 6.7323C18.0121 6.7323 16.8571 9.16699 19.2261 9.80355C21.9233 10.5254 22.2842 11.0242 22.0611 12.0742C21.7658 13.4457 18.0711 13.682 17.9136 11.746" stroke="#DE4E95" stroke-width="2" stroke-miterlimit="10" stroke-linecap="round" stroke-linejoin="round"/>
<path d="M19.9473 5.7085V14.5613" stroke="#DE4E95" stroke-width="2" stroke-miterlimit="10" stroke-linecap="round" stroke-linejoin="round"/>
<path d="M22.4087 19.6734H28.4988H33.9981H38.2506V1.54126H1.75V19.6734H14.7044" stroke="#DE4E95" stroke-width="2" stroke-miterlimit="10" stroke-linecap="round" stroke-linejoin="round"/>
<path d="M15.6487 4.10059H4.38086V17.3175H15.6487" stroke="#DE4E95" stroke-width="2" stroke-miterlimit="10" stroke-linecap="round" stroke-linejoin="round"/>
<path d="M24.2734 17.3175H35.5347V4.10059H24.2734" stroke="#DE4E95" stroke-width="2" stroke-miterlimit="10" stroke-linecap="round" stroke-linejoin="round"/>
<path d="M12.2298 10.6106C12.2298 11.4046 11.5867 12.0478 10.7927 12.0478C9.99859 12.0478 9.35547 11.4046 9.35547 10.6106C9.35547 9.81651 9.99859 9.17339 10.7927 9.17339C11.5867 9.16683 12.2298 9.80995 12.2298 10.6106Z" stroke="#DE4E95" stroke-width="2" stroke-miterlimit="10" stroke-linecap="round" stroke-linejoin="round"/>
<path d="M30.5795 10.6106C30.5795 11.4046 29.9363 12.0478 29.1423 12.0478C28.3482 12.0478 27.7051 11.4046 27.7051 10.6106C27.7051 9.81651 28.3482 9.17339 29.1423 9.17339C29.9298 9.16683 30.5795 9.80995 30.5795 10.6106Z" stroke="#DE4E95" stroke-width="2" stroke-miterlimit="10" stroke-linecap="round" stroke-linejoin="round"/>
</svg>
