<svg width="42" height="28" viewBox="0 0 42 28" fill="none" xmlns="http://www.w3.org/2000/svg">
<path d="M40.6368 9.19219L21.2469 1.04889C21.1709 1.01665 21.0889 1 21.006 1C20.9231 1 20.841 1.01665 20.7651 1.04889L5.22856 7.57058C5.20254 7.57934 5.17721 7.58994 5.1528 7.60231L1.36367 9.19219C1.25648 9.23754 1.16512 9.31198 1.1006 9.40653C1.03607 9.50109 1.00115 9.61172 1.00003 9.72509C0.99884 9.83879 1.0317 9.95037 1.09464 10.0463C1.15757 10.1423 1.24787 10.2184 1.35458 10.2656L4.81825 11.7968V17.0546C4.53484 17.1141 4.27291 17.2457 4.05946 17.436C3.75442 17.8019 3.58802 18.2581 3.58802 18.7285C3.58802 19.199 3.75442 19.6552 4.05946 20.0211C4.10177 20.0566 4.14608 20.0897 4.19218 20.1204C4.04855 20.715 3.9237 21.3043 3.81642 21.8584C3.58255 22.9956 3.43749 24.1483 3.38248 25.3066L3.37581 25.4242C3.34615 25.6031 3.35634 25.7861 3.40568 25.9609C3.45502 26.1357 3.54237 26.2983 3.66188 26.4377C3.94461 26.6935 4.29869 26.8631 4.68007 26.9253C4.90926 26.975 5.14341 27 5.37826 26.9999C5.8112 27.0028 6.2395 26.9133 6.63282 26.7379C7.61646 26.2937 7.46313 25.2779 7.3807 24.7326C7.36434 24.6233 7.34797 24.5164 7.33888 24.4153C7.19899 22.9748 6.95188 21.5459 6.59948 20.1398C6.65409 20.1044 6.70594 20.0651 6.75463 20.0223C7.05968 19.6564 7.22608 19.2002 7.22608 18.7297C7.22608 18.2593 7.05968 17.803 6.75463 17.4371C6.55049 17.2546 6.30091 17.1267 6.03039 17.0658V12.3326L9.48012 13.8602L8.51526 21.765V21.782L8.49465 22.034C8.49102 24.4718 14.7838 25.7502 21.0002 25.7502C27.2167 25.7502 33.5155 24.4747 33.5155 22.037C33.5155 22.0182 33.5155 21.9994 33.5155 21.9782L33.4973 21.7961V21.7902L32.6197 13.8091L40.6459 10.2656C40.7525 10.2184 40.8426 10.1423 40.9055 10.0464C40.9683 9.95053 41.0011 9.83906 41 9.72548C40.9988 9.6119 40.9637 9.50108 40.8989 9.40643C40.8342 9.31178 40.7425 9.23737 40.635 9.19219H40.6368ZM4.91765 18.2691C5.06407 18.1813 5.23579 18.1415 5.40735 18.1557C5.57911 18.1414 5.75104 18.1812 5.89766 18.2691C5.9737 18.4117 6.01339 18.5698 6.01339 18.7303C6.01339 18.8908 5.9737 19.049 5.89766 19.1915C5.74998 19.2769 5.57884 19.3163 5.40735 19.3043C5.23624 19.3163 5.06549 19.2769 4.91825 19.1915C4.84177 19.0491 4.80183 18.8909 4.80183 18.7303C4.80183 18.5697 4.84116 18.4115 4.91765 18.2691ZM6.12978 24.5152C6.14069 24.6386 6.16008 24.7685 6.18008 24.9018C6.26918 25.4894 6.24069 25.6163 6.11584 25.6733C5.7474 25.8297 5.33664 25.8664 4.94492 25.7779C4.81796 25.7542 4.69539 25.7122 4.58128 25.6533C4.58128 25.6075 4.58492 25.5434 4.58734 25.4964C4.58976 25.4494 4.59461 25.3883 4.59583 25.3407C4.6495 24.2439 4.78787 23.1525 5.00977 22.0758C5.10916 21.5623 5.22068 21.0182 5.35038 20.4747C5.37038 20.4747 5.38856 20.4794 5.41098 20.4794C5.43341 20.4794 5.4322 20.4794 5.4425 20.4794C5.77086 21.8075 6.00094 23.1566 6.13099 24.5164L6.12978 24.5152ZM3.09945 9.74448L4.81825 9.02239V10.5053L3.09945 9.74448ZM10.7426 13.5723L10.9298 12.0083C10.9551 11.8205 11.033 11.6431 11.1551 11.4953C11.2771 11.3475 11.4386 11.2349 11.622 11.1699C13.7929 10.3978 17.2996 9.93602 21.0014 9.93602C24.8257 9.93602 28.3955 10.4219 30.5573 11.2357C30.7348 11.3027 30.8897 11.4159 31.0051 11.5628C31.1205 11.7096 31.1918 11.8845 31.2112 12.0682L31.3622 13.453V13.4589L31.367 13.5041V13.52L32.101 20.2039C31.9874 20.1328 31.8671 20.0726 31.7416 20.0241C29.3779 18.8678 25.0251 18.3237 20.9996 18.3237C16.7929 18.3237 12.2001 18.9171 9.92618 20.1909L10.7353 13.5882C10.7365 13.5823 10.7407 13.5782 10.7413 13.5723H10.7426ZM21.0002 24.5752C13.5832 24.5752 9.70315 22.9224 9.70073 22.0893L9.71406 21.9406C10.0432 20.9324 14.1923 19.5018 21.0002 19.5018C27.6064 19.5018 31.9955 20.9183 32.2919 21.9489L32.3028 22.0552C32.2422 22.9453 28.3633 24.5752 21.0002 24.5752ZM32.4864 12.5764L32.4149 11.9431C32.3719 11.5455 32.2167 11.1671 31.9663 10.8495C31.7159 10.5319 31.3799 10.2874 30.9955 10.1428C28.7033 9.27739 24.9669 8.76153 21.0002 8.76153C17.1063 8.76153 13.5353 9.23743 11.2013 10.067C10.8091 10.2074 10.4642 10.4495 10.2043 10.767C9.94433 11.0845 9.77937 11.4651 9.72739 11.8673L9.63406 12.6311L6.03039 11.0412V8.51476L21.0051 2.22808L38.9016 9.74448L32.4864 12.5764Z" fill="#DE4E95" stroke="#DE4E95"/>
</svg>
