<svg width="35" height="35" viewBox="0 0 35 35" fill="none" xmlns="http://www.w3.org/2000/svg">
<path d="M20.5312 0.75C21.9789 0.75 23.1669 1.93952 23.167 3.38672V3.93652H25.3096C26.757 3.93652 27.9453 5.12385 27.9453 6.57129V17.7148L27.9414 17.8389C27.9197 18.1217 27.8011 18.3529 27.6201 18.5166C27.4183 18.6989 27.1538 18.7842 26.8984 18.7842C26.6431 18.7841 26.3786 18.699 26.1768 18.5166C25.97 18.3296 25.845 18.0546 25.8525 17.7148V12.3955H9.38574V12.3945C9.04984 12.3984 8.77851 12.2739 8.59375 12.0684C8.41278 11.8669 8.32812 11.6039 8.32812 11.3496C8.32814 11.0953 8.41276 10.8323 8.59375 10.6309C8.7785 10.4253 9.04985 10.2998 9.38574 10.3037H25.8525V6.57129C25.8525 6.25455 25.6263 6.02832 25.3096 6.02832H19.9883V6.57129C19.9883 6.89062 20.2171 7.12009 20.5312 7.12012H20.5371V7.12109C21.9015 7.15098 21.9015 9.18302 20.5371 9.21289H20.5312C19.0832 9.21286 17.8945 8.0181 17.8945 6.57129V6.02832H7.24512V6.57129C7.24512 6.88726 7.47873 7.11989 7.7959 7.12012H7.80176V7.12109C9.16675 7.15057 9.1667 9.18341 7.80176 9.21289H7.7959C6.34887 9.21263 5.15332 8.01881 5.15332 6.57129V6.02832H3.01758C2.69848 6.02854 2.46877 6.25727 2.46875 6.57129V10.3037H6.20117C6.53676 10.2999 6.80751 10.4255 6.99219 10.6309C7.17322 10.8323 7.25878 11.0953 7.25879 11.3496C7.25879 11.6039 7.17323 11.8669 6.99219 12.0684C6.80751 12.2738 6.5368 12.3983 6.20117 12.3945V12.3955H2.46875V32.0479C2.46896 32.3642 2.70121 32.5965 3.01758 32.5967H18.9375C19.2709 32.5967 19.5391 32.7244 19.7217 32.9297C19.9002 33.1305 19.9844 33.3911 19.9844 33.6436C19.9844 33.896 19.9002 34.1566 19.7217 34.3574C19.5391 34.5628 19.2709 34.6904 18.9375 34.6904H3.01758C1.57047 34.6902 0.375239 33.495 0.375 32.0479V6.57129C0.375027 5.12295 1.57141 3.93678 3.01758 3.93652H5.15332V3.38672C5.15338 1.93862 6.34952 0.750257 7.7959 0.75C9.24354 0.75 10.4316 1.93952 10.4316 3.38672V3.93652H17.8945V3.38672C17.8946 1.93932 19.0838 0.750027 20.5312 0.75ZM26.9023 19.8555C30.988 19.8557 34.3154 23.185 34.3154 27.2705C34.3154 31.3559 30.9883 34.6902 26.9023 34.6904C22.8162 34.6904 19.4883 31.3561 19.4883 27.2705C19.4884 23.1848 22.8165 19.8555 26.9023 19.8555ZM26.9023 21.9492C23.9532 21.9492 21.5801 24.3214 21.5801 27.2705C21.5801 30.22 23.9534 32.5967 26.9023 32.5967C29.851 32.5964 32.2236 30.2198 32.2236 27.2705C32.2236 24.3215 29.8513 21.9495 26.9023 21.9492ZM29.4082 24.5342C29.6194 24.5265 29.8283 24.5831 30.0068 24.6963C30.1856 24.8097 30.3252 24.9751 30.4082 25.1699C30.4912 25.3648 30.5138 25.5805 30.4717 25.7881C30.4298 25.9942 30.3254 26.1815 30.1748 26.3281L30.1758 26.3291L26.7959 29.7041C26.6988 29.8014 26.583 29.878 26.4561 29.9307C26.3291 29.9833 26.1931 30.0107 26.0557 30.0107C25.9181 30.0107 25.7814 29.9834 25.6543 29.9307C25.5272 29.8779 25.4116 29.8005 25.3145 29.7031L23.6279 28.0166V28.0156C23.5291 27.9199 23.4492 27.806 23.3945 27.6797C23.3392 27.5517 23.31 27.4138 23.3086 27.2744C23.3072 27.1349 23.3339 26.9963 23.3867 26.8672C23.4395 26.7381 23.5176 26.621 23.6162 26.5225C23.7149 26.4239 23.8327 26.3456 23.9619 26.293C24.091 26.2405 24.2298 26.2142 24.3691 26.2158C24.5085 26.2175 24.6466 26.2472 24.7744 26.3027C24.9007 26.3576 25.0147 26.4371 25.1104 26.5361L26.0557 27.4854L28.6934 24.8486C28.8821 24.6556 29.1383 24.5428 29.4082 24.5342ZM6.99707 26.2266C7.57483 26.2266 8.04297 26.6947 8.04297 27.2725C8.04283 27.8501 7.57475 28.3184 6.99707 28.3184C6.41942 28.3183 5.95131 27.8501 5.95117 27.2725C5.95117 26.6947 6.41934 26.2266 6.99707 26.2266ZM11.7734 26.2266C12.3512 26.2266 12.8203 26.6947 12.8203 27.2725C12.8202 27.8501 12.3511 28.3184 11.7734 28.3184C11.196 28.3181 10.7277 27.85 10.7275 27.2725C10.7275 26.6949 11.1959 26.2268 11.7734 26.2266ZM16.5508 26.2266C17.1285 26.2266 17.5967 26.6947 17.5967 27.2725C17.5965 27.8501 17.1284 28.3183 16.5508 28.3184C15.9731 28.3184 15.505 27.8501 15.5049 27.2725C15.5049 26.6947 15.973 26.2266 16.5508 26.2266ZM6.99707 21.4492C7.57472 21.4492 8.04279 21.9175 8.04297 22.4951C8.04297 23.0729 7.57483 23.542 6.99707 23.542C6.41934 23.542 5.95117 23.0729 5.95117 22.4951C5.95135 21.9175 6.41945 21.4493 6.99707 21.4492ZM11.7734 21.4492C12.3511 21.4492 12.8201 21.9175 12.8203 22.4951C12.8203 23.0729 12.3512 23.542 11.7734 23.542C11.1959 23.5417 10.7275 23.0727 10.7275 22.4951C10.7277 21.9177 11.196 21.4495 11.7734 21.4492ZM16.5508 21.4492C17.1284 21.4493 17.5965 21.9175 17.5967 22.4951C17.5967 23.0728 17.1285 23.5419 16.5508 23.542C15.973 23.542 15.5049 23.0729 15.5049 22.4951C15.5051 21.9175 15.9731 21.4492 16.5508 21.4492ZM6.99707 16.6729C7.57483 16.6729 8.04297 17.141 8.04297 17.7188C8.04293 18.2965 7.57481 18.7646 6.99707 18.7646C6.41936 18.7646 5.95121 18.2965 5.95117 17.7188C5.95117 17.141 6.41934 16.6729 6.99707 16.6729ZM11.7734 16.6729C12.3512 16.6729 12.8203 17.141 12.8203 17.7188C12.8203 18.2965 12.3512 18.7646 11.7734 18.7646C11.1959 18.7644 10.7276 18.2963 10.7275 17.7188C10.7275 17.1411 11.1959 16.6731 11.7734 16.6729ZM16.5508 16.6729C17.1285 16.6729 17.5967 17.141 17.5967 17.7188C17.5966 18.2964 17.1285 18.7646 16.5508 18.7646C15.973 18.7646 15.5049 18.2965 15.5049 17.7188C15.5049 17.141 15.973 16.6729 16.5508 16.6729ZM21.3271 16.6729C21.9049 16.6729 22.374 17.141 22.374 17.7188C22.374 18.2965 21.9049 18.7646 21.3271 18.7646C20.7495 18.7645 20.2813 18.2964 20.2812 17.7188C20.2812 17.1411 20.7495 16.673 21.3271 16.6729ZM7.7959 2.8418C7.47686 2.84202 7.24517 3.07278 7.24512 3.38672V3.93652H8.33984V3.38672C8.33979 3.06941 8.11196 2.8418 7.7959 2.8418ZM20.5312 2.8418C20.2152 2.84182 19.9883 3.06943 19.9883 3.38672V3.93652H21.0801V3.38672C21.08 3.07199 20.8499 2.8418 20.5312 2.8418Z" fill="#DE4E95"/>
</svg>
