<svg width="38" height="35" viewBox="0 0 38 35" fill="none" xmlns="http://www.w3.org/2000/svg">
<path d="M32.4558 6.67192H26.1175V4.63328C26.1175 3.40446 25.6293 2.22596 24.7604 1.35706C23.8915 0.488148 22.713 0 21.4842 0H16.2455C15.0167 0 13.8382 0.488148 12.9693 1.35706C12.1004 2.22596 11.6122 3.40446 11.6122 4.63328V6.67192H5.2739C4.04508 6.67192 2.86659 7.16007 1.99768 8.02898C1.12877 8.89788 0.640625 10.0764 0.640625 11.3052V29.4924C0.640625 30.7212 1.12877 31.8997 1.99768 32.7686C2.86659 33.6375 4.04508 34.1256 5.2739 34.1256H32.4558C33.6846 34.1256 34.8631 33.6375 35.732 32.7686C36.6009 31.8997 37.0891 30.7212 37.0891 29.4924V11.3052C37.0891 10.0764 36.6009 8.89788 35.732 8.02898C34.8631 7.16007 33.6846 6.67192 32.4558 6.67192ZM21.6819 15.3207H16.0478C15.4229 15.324 14.8246 15.5736 14.3827 16.0155C13.9409 16.4573 13.6912 17.0557 13.6879 17.6806V18.1748H6.78126C5.6452 18.1715 4.55659 17.7188 3.75327 16.9155C2.94994 16.1122 2.4972 15.0235 2.49394 13.8875V11.3052C2.49394 10.5679 2.78682 9.86081 3.30817 9.33947C3.82951 8.81812 4.53661 8.52523 5.2739 8.52523H32.4558C33.1931 8.52523 33.9002 8.81812 34.4215 9.33947C34.9429 9.86081 35.2358 10.5679 35.2358 11.3052V13.8751C35.2325 15.0112 34.7798 16.0998 33.9764 16.9031C33.1731 17.7064 32.0845 18.1592 30.9484 18.1624H24.0418V17.6682C24.0385 17.0434 23.7889 16.445 23.347 16.0031C22.9051 15.5613 22.3068 15.3116 21.6819 15.3084V15.3207ZM22.1885 17.6806V20.5223C22.1853 20.6557 22.1309 20.7827 22.0366 20.8771C21.9423 20.9714 21.8153 21.0258 21.6819 21.0289H16.0478C15.9145 21.0258 15.7874 20.9714 15.6931 20.8771C15.5988 20.7827 15.5444 20.6557 15.5412 20.5223V17.6682C15.5412 17.5339 15.5946 17.405 15.6896 17.31C15.7846 17.215 15.9135 17.1617 16.0478 17.1617H21.6819C21.8162 17.1617 21.9451 17.215 22.0401 17.31C22.1351 17.405 22.1885 17.5339 22.1885 17.6682V17.6806ZM13.4655 4.63328C13.4655 3.89599 13.7584 3.18889 14.2798 2.66754C14.8011 2.1462 15.5082 1.85331 16.2455 1.85331H21.4842C22.2215 1.85331 22.9286 2.1462 23.4499 2.66754C23.9713 3.18889 24.2642 3.89599 24.2642 4.63328V6.67192H13.4655V4.63328ZM32.4558 32.2723H5.2739C4.53661 32.2723 3.82951 31.9794 3.30817 31.4581C2.78682 30.9367 2.49394 30.2297 2.49394 29.4924V18.2984C3.63696 19.4239 5.17713 20.0541 6.78126 20.0528H13.6879V20.5594C13.6912 21.1843 13.9409 21.7826 14.3827 22.2245C14.8246 22.6664 15.4229 22.916 16.0478 22.9193H21.6819C22.3068 22.916 22.9051 22.6664 23.347 22.2245C23.7889 21.7826 24.0385 21.1843 24.0418 20.5594V20.0528H30.9484C32.5526 20.0541 34.0927 19.4239 35.2358 18.2984V29.5294C35.226 30.2603 34.9288 30.9579 34.4085 31.4712C33.8883 31.9846 33.1867 32.2724 32.4558 32.2723Z" fill="#DE4E95"/>
</svg>
