<svg width="1373" height="723" viewBox="0 0 1373 723" fill="none" xmlns="http://www.w3.org/2000/svg">
<path d="M944.604 321.099L944.217 320.76L943.702 320.779C878.2 323.241 819.209 320.688 775.278 306.357C753.329 299.197 735.211 289.119 721.917 275.323C708.656 261.559 700.134 244.032 697.443 221.832L697.326 103.523L858.894 1.73584L1020.46 103.557L1019.97 387.02L944.604 321.099Z" stroke="url(#paint0_linear_23331_6790)" stroke-width="2.59202"/>
<path d="M1124.36 178.534L1124.75 178.873L1125.26 178.853C1190.77 176.391 1249.76 178.945 1293.69 193.275C1315.64 200.435 1333.75 210.513 1347.05 224.31C1360.31 238.073 1368.83 255.601 1371.52 277.8L1371.64 396.109L1210.07 497.896L1048.5 396.075L1048.99 112.612L1124.36 178.534Z" stroke="url(#paint1_linear_23331_6790)" stroke-width="2.59202"/>
<path d="M249.517 543.961L249.129 543.622L248.615 543.642C183.112 546.104 124.121 543.55 80.1901 529.22C58.241 522.06 40.123 511.982 26.8296 498.185C13.5678 484.422 5.04596 466.894 2.35483 444.695L2.23801 326.386L163.806 224.599L325.375 326.42L324.886 609.883L249.517 543.961Z" stroke="url(#paint2_linear_23331_6790)" stroke-width="2.59202"/>
<path d="M429.273 401.397L429.66 401.735L430.174 401.716C495.677 399.254 554.668 401.808 598.599 416.138C620.548 423.298 638.666 433.376 651.959 447.172C665.221 460.936 673.743 478.463 676.434 500.663L676.551 618.972L514.983 720.759L353.414 618.938L353.903 335.475L429.273 401.397Z" stroke="url(#paint3_linear_23331_6790)" stroke-width="2.59202"/>
<path d="M297.948 397.644L396.449 210.904H458.011L357.048 397.644H297.948ZM297.948 430.478V397.644L318.469 381.638H525.32V430.478H297.948ZM434.207 499.428V315.561H489.203V499.428H434.207ZM671.641 503.532C648.931 503.532 628.41 497.376 610.078 485.064C591.746 472.751 577.108 455.377 566.163 432.94C555.492 410.504 550.157 384.374 550.157 354.55C550.157 324.727 555.492 298.733 566.163 276.571C576.834 254.408 591.199 237.17 609.257 224.858C627.589 212.545 647.973 206.389 670.41 206.389C693.393 206.389 713.914 212.545 731.972 224.858C750.305 237.17 764.806 254.545 775.477 276.981C786.148 299.144 791.483 325.274 791.483 355.371C791.483 385.195 786.148 411.325 775.477 433.761C764.806 455.924 750.441 473.161 732.383 485.474C714.324 497.513 694.077 503.532 671.641 503.532ZM670.82 453.051C683.953 453.051 695.308 449.357 704.885 441.97C714.461 434.582 721.849 423.638 727.047 409.136C732.52 394.635 735.256 376.576 735.256 354.961C735.256 333.345 732.52 315.287 727.047 300.785C721.849 286.284 714.324 275.476 704.474 268.362C694.898 260.975 683.543 257.281 670.41 257.281C657.55 257.281 646.332 260.975 636.755 268.362C627.179 275.476 619.654 286.284 614.182 300.785C608.984 315.013 606.384 332.935 606.384 354.55C606.384 376.439 608.984 394.635 614.182 409.136C619.654 423.638 627.179 434.582 636.755 441.97C646.332 449.357 657.687 453.051 670.82 453.051ZM816.583 397.644L915.083 210.904H976.646L875.683 397.644H816.583ZM816.583 430.478V397.644L837.104 381.638H1043.95V430.478H816.583ZM952.842 499.428V315.561H1007.84V499.428H952.842Z" fill="url(#paint4_linear_23331_6790)"/>
<defs>
<linearGradient id="paint0_linear_23331_6790" x1="858.894" y1="389.871" x2="858.894" y2="0.20401" gradientUnits="userSpaceOnUse">
<stop stop-color="#F6C9DF"/>
<stop offset="1" stop-color="white"/>
</linearGradient>
<linearGradient id="paint1_linear_23331_6790" x1="1210.07" y1="109.761" x2="1210.07" y2="499.428" gradientUnits="userSpaceOnUse">
<stop stop-color="#F6C9DF"/>
<stop offset="1" stop-color="white"/>
</linearGradient>
<linearGradient id="paint2_linear_23331_6790" x1="163.807" y1="612.734" x2="163.807" y2="223.067" gradientUnits="userSpaceOnUse">
<stop stop-color="#F6C9DF"/>
<stop offset="1" stop-color="white"/>
</linearGradient>
<linearGradient id="paint3_linear_23331_6790" x1="514.982" y1="332.624" x2="514.982" y2="722.291" gradientUnits="userSpaceOnUse">
<stop stop-color="#F6C9DF"/>
<stop offset="1" stop-color="white"/>
</linearGradient>
<linearGradient id="paint4_linear_23331_6790" x1="287.688" y1="97.937" x2="553.728" y2="621.929" gradientUnits="userSpaceOnUse">
<stop stop-color="#FF5697"/>
<stop offset="1" stop-color="#592F8A"/>
</linearGradient>
</defs>
</svg>
