<svg width="48" height="42" viewBox="0 0 48 42" fill="none" xmlns="http://www.w3.org/2000/svg">
<path d="M40.4483 41.1545C40.3236 41.1545 40.201 41.1228 40.092 41.0624C39.983 41.002 39.8912 40.9148 39.8251 40.8091L36.386 35.3066L16.9875 36.7454C16.8865 36.7529 16.7851 36.7394 16.6895 36.7059C16.594 36.6723 16.5064 36.6194 16.4323 36.5504C16.3582 36.4814 16.2992 36.3978 16.2589 36.3049C16.2186 36.212 16.198 36.1118 16.1983 36.0106V13.9651C16.1977 13.8621 16.2189 13.7601 16.2603 13.6658C16.3018 13.5715 16.3626 13.487 16.4388 13.4177C16.515 13.3484 16.6049 13.2959 16.7028 13.2636C16.8006 13.2313 16.9041 13.2199 17.0066 13.2302L46.4005 16.1696C46.5824 16.1879 46.751 16.2733 46.8733 16.4092C46.9956 16.5451 47.0628 16.7217 47.0619 16.9045V33.806C47.0618 33.9798 47.0002 34.148 46.8878 34.2807C46.7755 34.4134 46.6198 34.5019 46.4483 34.5306L42.5139 35.1868L41.1611 40.5975C41.1261 40.7374 41.0507 40.8638 40.9443 40.9612C40.838 41.0585 40.7053 41.1224 40.5629 41.1449C40.525 41.1514 40.4867 41.1546 40.4483 41.1545ZM36.774 33.806C36.8986 33.806 37.0212 33.8377 37.1302 33.8981C37.2393 33.9585 37.3311 34.0457 37.3972 34.1514L40.1543 38.5642L41.2044 34.363C41.2388 34.2247 41.3127 34.0994 41.4171 34.0023C41.5215 33.9052 41.6518 33.8406 41.7923 33.8163L45.5922 33.1836V17.5695L17.6679 14.7771V35.2191L36.7196 33.806H36.774Z" fill="#EE5296"/>
<path d="M6.64587 27.9272C6.61811 27.9273 6.59037 27.9256 6.56283 27.9221C6.41219 27.905 6.27052 27.8417 6.15724 27.7409C6.04397 27.6402 5.96464 27.5068 5.93013 27.3592L4.58389 21.5752L0.717112 21.3136C0.531005 21.3009 0.356688 21.2179 0.229507 21.0815C0.102326 20.945 0.0318009 20.7653 0.0322326 20.5787V3.67723C0.0314862 3.49327 0.0997645 3.31572 0.223577 3.17966C0.34739 3.0436 0.517731 2.95893 0.700945 2.94238L33.0343 0.00298279C33.1362 -0.00622766 33.2389 0.00594851 33.3358 0.0387313C33.4328 0.071514 33.5218 0.124181 33.5972 0.193358C33.6726 0.262536 33.7327 0.346699 33.7737 0.440458C33.8147 0.534216 33.8357 0.635503 33.8353 0.737831V13.2303C33.8353 13.4252 33.7579 13.6121 33.62 13.7499C33.4822 13.8877 33.2953 13.9651 33.1004 13.9651C32.9055 13.9651 32.7186 13.8877 32.5808 13.7499C32.443 13.6121 32.3656 13.4252 32.3656 13.2303V1.54616L1.50193 4.34814V19.8924L5.22614 20.1467C5.38316 20.1574 5.53259 20.2182 5.65244 20.3202C5.7723 20.4222 5.85624 20.5599 5.89192 20.7132L6.89278 25.0136L8.9239 20.8573C8.98862 20.7248 9.0917 20.6148 9.21974 20.5417C9.34778 20.4686 9.49485 20.4356 9.64185 20.4472L14.0509 20.7985C14.2452 20.8139 14.4255 20.9058 14.552 21.0541C14.6785 21.2024 14.7409 21.3949 14.7255 21.5892C14.7101 21.7835 14.6182 21.9637 14.4699 22.0902C14.3216 22.2167 14.1291 22.2792 13.9348 22.2638L10.0262 21.9522L7.30723 27.515C7.24674 27.6388 7.15265 27.7431 7.0357 27.816C6.91876 27.8889 6.78367 27.9274 6.64587 27.9272Z" fill="#EE5296"/>
<path d="M31.6302 20.5786H23.5469V22.0483H31.6302V20.5786Z" fill="#EE5296"/>
<path d="M36.04 20.5786H33.1006V22.0483H36.04V20.5786Z" fill="#EE5296"/>
<path d="M42.6537 20.5786H37.5098V22.0483H42.6537V20.5786Z" fill="#EE5296"/>
<path d="M29.4266 24.2529H20.6084V25.7226H29.4266V24.2529Z" fill="#EE5296"/>
<path d="M42.6531 24.2529H30.8955V25.7226H42.6531V24.2529Z" fill="#EE5296"/>
<path d="M25.0175 27.9272H20.6084V29.3969H25.0175V27.9272Z" fill="#EE5296"/>
<path d="M34.5697 27.9272H26.4863V29.3969H34.5697V27.9272Z" fill="#EE5296"/>
<path d="M37.5097 27.9272H36.04V29.3969H37.5097V27.9272Z" fill="#EE5296"/>
</svg>
