<svg width="31" height="42" viewBox="0 0 31 42" fill="none" xmlns="http://www.w3.org/2000/svg">
<path d="M29.8631 41.0574H0.724736C0.358851 41.0574 0.0625 40.761 0.0625 40.3951V4.6344C0.0625 4.26852 0.358851 3.97217 0.724736 3.97217H8.95638C9.32226 3.97217 9.61861 4.26852 9.61861 4.6344C9.61861 5.00029 9.32226 5.29664 8.95638 5.29664H1.38718V39.7329H29.2011V5.29664H22.9564C22.5905 5.29664 22.2941 5.00029 22.2941 4.6344C22.2941 4.26852 22.5905 3.97217 22.9564 3.97217H29.8635C30.2294 3.97217 30.5258 4.26852 30.5258 4.6344V40.3951C30.5258 40.761 30.229 41.0574 29.8631 41.0574Z" fill="#EE5296"/>
<path d="M8.67203 21.1897C7.61907 21.1897 6.58763 20.9132 5.6903 20.3917C3.85427 19.3321 2.71191 17.3537 2.71191 15.2294C2.71191 11.9431 5.38569 9.26953 8.67182 9.26953C11.958 9.26953 14.6317 11.9433 14.6317 15.2294C14.6317 17.3519 13.4894 19.3303 11.6517 20.3917C10.756 20.9132 9.72496 21.1897 8.67203 21.1897ZM8.67203 10.5939C6.11583 10.5939 4.03617 12.6733 4.03617 15.2298C4.03617 16.882 4.92524 18.4201 6.35402 19.2446C7.74969 20.0575 9.59565 20.0559 10.9882 19.2463C12.4203 18.4201 13.3077 16.8804 13.3077 15.2298C13.3077 12.6736 11.2285 10.5939 8.67203 10.5939Z" fill="#EE5296"/>
<path d="M25.8902 14.5673H17.2814C16.9155 14.5673 16.6191 14.2709 16.6191 13.9051V10.5939C16.6191 10.228 16.9155 9.93164 17.2814 9.93164H25.8902C26.2561 9.93164 26.5525 10.228 26.5525 10.5939V13.9051C26.5525 14.2709 26.2561 14.5673 25.8902 14.5673ZM17.9434 13.2428H25.2282V11.2561H17.9434V13.2428Z" fill="#EE5296"/>
<path d="M25.8902 20.5277H17.2814C16.9155 20.5277 16.6191 20.2314 16.6191 19.8655V16.5543C16.6191 16.1884 16.9155 15.8921 17.2814 15.8921H25.8902C26.2561 15.8921 26.5525 16.1884 26.5525 16.5543V19.8655C26.5525 20.2314 26.2561 20.5277 25.8902 20.5277ZM17.9434 19.2033H25.2282V17.2166H17.9434V19.2033Z" fill="#EE5296"/>
<path d="M23.241 24.5007H4.69837C4.33248 24.5007 4.03613 24.2044 4.03613 23.8385C4.03613 23.4726 4.33248 23.1763 4.69837 23.1763H23.241C23.6069 23.1763 23.9032 23.4726 23.9032 23.8385C23.9032 24.2044 23.6069 24.5007 23.241 24.5007Z" fill="#EE5296"/>
<path d="M17.2811 28.4744H4.69837C4.33248 28.4744 4.03613 28.178 4.03613 27.8121C4.03613 27.4463 4.33248 27.1499 4.69837 27.1499H17.2811C17.6469 27.1499 17.9433 27.4463 17.9433 27.8121C17.9433 28.178 17.6469 28.4744 17.2811 28.4744Z" fill="#EE5296"/>
<path d="M8.67128 16.554C7.57529 16.554 6.68457 15.6633 6.68457 14.5673C6.68457 13.4713 7.57529 12.5806 8.67128 12.5806C9.76726 12.5806 10.658 13.4713 10.658 14.5673C10.658 15.6633 9.76726 16.554 8.67128 16.554ZM8.67128 13.905C8.30539 13.905 8.00904 14.2014 8.00904 14.5673C8.00904 14.9332 8.30539 15.2295 8.67128 15.2295C9.03716 15.2295 9.33351 14.9332 9.33351 14.5673C9.33351 14.2014 9.03716 13.905 8.67128 13.905Z" fill="#EE5296"/>
<path d="M8.67161 21.1897C7.61865 21.1897 6.58721 20.9132 5.68988 20.3917C5.48293 20.2708 5.3571 20.0473 5.36042 19.8073C5.39353 18.0142 6.87858 16.5557 8.67159 16.5557C10.4646 16.5557 11.9497 18.0142 11.9828 19.8073C11.9877 20.0473 11.8619 20.2708 11.6533 20.3917C10.756 20.9148 9.72458 21.1897 8.67161 21.1897ZM6.72962 19.4414C7.93491 19.9993 9.40836 19.9993 10.6136 19.4414C10.4216 18.5391 9.63188 17.8785 8.67165 17.8785C7.71142 17.8785 6.92166 18.5391 6.72962 19.4414Z" fill="#EE5296"/>
<path d="M22.5782 38.4078C19.6577 38.4078 17.2803 36.0303 17.2803 33.1099C17.2803 30.1894 19.6577 27.812 22.5782 27.812C25.4986 27.812 27.876 30.1894 27.876 33.1099C27.876 36.0303 25.4986 38.4078 22.5782 38.4078ZM22.5782 29.1365C20.3878 29.1365 18.6047 30.9195 18.6047 33.1099C18.6047 35.3003 20.3878 37.0833 22.5782 37.0833C24.7685 37.0833 26.5516 35.3003 26.5516 33.1099C26.5516 30.9195 24.7685 29.1365 22.5782 29.1365Z" fill="#EE5296"/>
<path d="M21.2537 35.0964C21.065 35.0964 20.8779 35.0153 20.7471 34.8613L19.6263 33.5369C19.3895 33.2571 19.4259 32.8399 19.7041 32.6031C19.9822 32.3664 20.4011 32.4028 20.6378 32.6809L21.3762 33.5534L24.8579 31.2323C25.1625 31.0286 25.5731 31.1114 25.7768 31.4161C25.9788 31.7207 25.8976 32.1313 25.593 32.3349L21.6196 34.9839C21.507 35.0584 21.3795 35.0948 21.2521 35.0948L21.2537 35.0964Z" fill="#EE5296"/>
<path d="M23.2404 7.28294H8.67126C8.47259 7.28294 8.2855 7.19354 8.15969 7.04123C8.03387 6.88726 7.9842 6.68693 8.02228 6.49156L8.68452 3.18038C8.74577 2.87079 9.01894 2.64894 9.33349 2.64894H12.7109C13.0188 1.13905 14.3566 0 15.9558 0C17.5551 0 18.8929 1.13905 19.2008 2.64894H22.5782C22.8944 2.64894 23.1659 2.87245 23.2272 3.18038L23.8894 6.49156C23.9291 6.68692 23.8778 6.88725 23.752 7.04123C23.6262 7.1952 23.4391 7.28294 23.2404 7.28294ZM9.47908 5.95847H22.4322L22.0349 3.97176H18.6045C18.2386 3.97176 17.9422 3.67541 17.9422 3.30953C17.9422 2.21355 17.0515 1.32282 15.9555 1.32282C14.8595 1.32282 13.9688 2.21355 13.9688 3.30953C13.9688 3.67541 13.6725 3.97176 13.3066 3.97176H9.87617L9.47908 5.95847Z" fill="#EE5296"/>
</svg>
