<svg width="25" height="24" viewBox="0 0 25 24" fill="none" xmlns="http://www.w3.org/2000/svg">
<path fill-rule="evenodd" clip-rule="evenodd" d="M21.5372 0.154037H3.2247C1.84556 0.154037 0.727539 1.27205 0.727539 2.6512V20.9637C0.727539 22.3428 1.84556 23.4609 3.2247 23.4609H10.365V15.5371H7.08749V11.8074H10.365V8.96485C10.365 5.73155 12.2899 3.94556 15.2381 3.94556C16.6501 3.94556 18.1265 4.19735 18.1265 4.19735V7.37083H16.4997C14.8968 7.37083 14.3969 8.36553 14.3969 9.38572V11.8074H17.9751L17.4028 15.5371H14.3969V23.4609H21.5372C22.9163 23.4609 24.0344 22.3428 24.0344 20.9637V2.6512C24.0344 1.27205 22.9163 0.154037 21.5372 0.154037V0.154037Z" fill="white"/>
</svg>
