<svg width="25" height="24" viewBox="0 0 25 24" fill="none" xmlns="http://www.w3.org/2000/svg">
<path fill-rule="evenodd" clip-rule="evenodd" d="M12.3861 5.82466C9.07741 5.82466 6.40857 8.4935 6.40857 11.8022C6.40857 15.111 9.07741 17.7798 12.3861 17.7798C15.6949 17.7798 18.3637 15.111 18.3637 11.8022C18.3637 8.4935 15.6949 5.82466 12.3861 5.82466ZM12.3861 15.6884C10.248 15.6884 8.49994 13.9456 8.49994 11.8022C8.49994 9.65884 10.2428 7.91604 12.3861 7.91604C14.5295 7.91604 16.2724 9.65884 16.2724 11.8022C16.2724 13.9456 14.5243 15.6884 12.3861 15.6884V15.6884ZM20.0025 5.58015C20.0025 6.35531 19.3782 6.9744 18.6082 6.9744C17.8331 6.9744 17.214 6.35011 17.214 5.58015C17.214 4.81019 17.8383 4.1859 18.6082 4.1859C19.3782 4.1859 20.0025 4.81019 20.0025 5.58015ZM23.9615 6.99521C23.8731 5.12754 23.4465 3.47317 22.0782 2.11014C20.7152 0.747107 19.0608 0.320509 17.1932 0.226866C15.2683 0.117615 9.49881 0.117615 7.57391 0.226866C5.71145 0.315307 4.05708 0.741905 2.68884 2.10494C1.32061 3.46797 0.899214 5.12234 0.805571 6.99001C0.69632 8.9149 0.69632 14.6844 0.805571 16.6093C0.894012 18.4769 1.32061 20.1313 2.68884 21.4943C4.05708 22.8574 5.70625 23.284 7.57391 23.3776C9.49881 23.4869 15.2683 23.4869 17.1932 23.3776C19.0608 23.2892 20.7152 22.8626 22.0782 21.4943C23.4413 20.1313 23.8679 18.4769 23.9615 16.6093C24.0708 14.6844 24.0708 8.9201 23.9615 6.99521ZM21.4748 18.6746C21.069 19.6943 20.2834 20.4799 19.2585 20.8909C17.7238 21.4995 14.0821 21.3591 12.3861 21.3591C10.6902 21.3591 7.04327 21.4943 5.51376 20.8909C4.49408 20.4851 3.70852 19.6995 3.29753 18.6746C2.68885 17.1399 2.82931 13.4982 2.82931 11.8022C2.82931 10.1063 2.69405 6.45936 3.29753 4.92985C3.70332 3.91018 4.48888 3.12461 5.51376 2.71362C7.04847 2.10494 10.6902 2.2454 12.3861 2.2454C14.0821 2.2454 17.729 2.11014 19.2585 2.71362C20.2782 3.11941 21.0638 3.90497 21.4748 4.92985C22.0834 6.46456 21.943 10.1063 21.943 11.8022C21.943 13.4982 22.0834 17.1451 21.4748 18.6746Z" fill="white"/>
</svg>
