<svg width="25" height="24" viewBox="0 0 25 24" fill="none" xmlns="http://www.w3.org/2000/svg">
<path fill-rule="evenodd" clip-rule="evenodd" d="M22.3696 0.154037H2.38711C1.47148 0.154037 0.727539 0.908388 0.727539 1.83442V21.7805C0.727539 22.7065 1.47148 23.4609 2.38711 23.4609H22.3696C23.2852 23.4609 24.0344 22.7065 24.0344 21.7805V1.83442C24.0344 0.908388 23.2852 0.154037 22.3696 0.154037ZM7.77161 20.1313H4.31721V9.00855H7.77681V20.1313H7.77161ZM6.04441 7.48944C4.93629 7.48944 4.04148 6.58942 4.04148 5.48651C4.04148 4.3836 4.93629 3.48358 6.04441 3.48358C7.14732 3.48358 8.04734 4.3836 8.04734 5.48651C8.04734 6.59463 7.15252 7.48944 6.04441 7.48944V7.48944ZM20.7204 20.1313H17.266V14.7208C17.266 13.4306 17.24 11.771 15.4712 11.771C13.6711 11.771 13.3954 13.1757 13.3954 14.6272V20.1313H9.94102V9.00855H13.255V10.5277H13.3018C13.7648 9.65365 14.8937 8.73282 16.5741 8.73282C20.0701 8.73282 20.7204 11.0375 20.7204 14.0341V20.1313V20.1313Z" fill="white"/>
</svg>
