<svg width="55" height="55" viewBox="0 0 55 55" fill="none" xmlns="http://www.w3.org/2000/svg">
<path d="M40.1917 33.8327C39.6397 33.836 39.1083 33.6234 38.7109 33.2404L29.7415 24.5671C28.3644 23.2499 27.2684 21.6673 26.5196 19.9148C25.7708 18.1624 25.3848 16.2765 25.3848 14.3708C25.3848 12.4651 25.7708 10.5791 26.5196 8.82672C27.2684 7.07429 28.3644 5.49171 29.7415 4.17444C32.5608 1.49444 36.3019 0 40.1917 0C44.0815 0 47.8227 1.49444 50.6419 4.17444C52.019 5.49171 53.1151 7.07429 53.8638 8.82672C54.6126 10.5791 54.9987 12.4651 54.9987 14.3708C54.9987 16.2765 54.6126 18.1624 53.8638 19.9148C53.1151 21.6673 52.019 23.2499 50.6419 24.5671L41.6725 33.2404C41.2751 33.6234 40.7437 33.836 40.1917 33.8327ZM40.1917 4.21675C37.3924 4.19961 34.6973 5.27766 32.682 7.22065C31.7116 8.14166 30.9388 9.25055 30.4107 10.4798C29.8827 11.709 29.6103 13.0329 29.6103 14.3708C29.6103 15.7087 29.8827 17.0325 30.4107 18.2618C30.9388 19.491 31.7116 20.5999 32.682 21.5209L40.1917 28.7768L47.7015 21.5209C48.6719 20.5999 49.4446 19.491 49.9727 18.2618C50.5008 17.0325 50.7731 15.7087 50.7731 14.3708C50.7731 13.0329 50.5008 11.709 49.9727 10.4798C49.4446 9.25055 48.6719 8.14166 47.7015 7.22065C45.6837 5.28149 42.9902 4.2041 40.1917 4.21675Z" fill="#DE4E95"/>
<path d="M16.9234 54.9866C16.5528 54.9891 16.1881 54.8943 15.8657 54.7116L1.05773 46.2499C0.734905 46.0635 0.467063 45.7951 0.281322 45.4719C0.0955807 45.1487 -0.00146321 44.7822 1.66756e-05 44.4094V6.33184C-0.00146321 5.95908 0.0955807 5.59255 0.281322 5.26936C0.467063 4.94617 0.734905 4.6778 1.05773 4.49142C1.37931 4.30575 1.74411 4.20801 2.11544 4.20801C2.48677 4.20801 2.85157 4.30575 3.17315 4.49142L17.9811 12.9531C18.3039 13.1395 18.5718 13.4079 18.7575 13.7311C18.9433 14.0542 19.0403 14.4208 19.0388 14.7935V52.8711C19.0403 53.2439 18.9433 53.6104 18.7575 53.9336C18.5718 54.2568 18.3039 54.5252 17.9811 54.7116C17.6587 54.8943 17.294 54.9891 16.9234 54.9866ZM4.23086 43.1825L14.808 49.2326V16.0205L4.23086 9.97036V43.1825Z" fill="#DE4E95"/>
<path d="M16.924 54.9866C16.5535 54.9892 16.1887 54.8943 15.8663 54.7116C15.5435 54.5252 15.2757 54.2569 15.0899 53.9337C14.9042 53.6105 14.8071 53.2439 14.8086 52.8712V14.7936C14.8071 14.4208 14.9042 14.0543 15.0899 13.7311C15.2757 13.4079 15.5435 13.1395 15.8663 12.9532L28.5589 5.69726C28.8016 5.55825 29.0694 5.46874 29.3469 5.43393C29.6245 5.39912 29.9061 5.41968 30.1757 5.49444C30.4452 5.5692 30.6972 5.69666 30.9171 5.86946C31.1371 6.04225 31.3206 6.25695 31.457 6.50112C31.7328 6.98686 31.8053 7.56196 31.6586 8.10094C31.512 8.63992 31.1581 9.09903 30.6743 9.3781L19.0395 16.0205V49.2327L30.6743 42.5691C30.916 42.4302 31.1826 42.3402 31.4591 42.3044C31.7355 42.2686 32.0163 42.2875 32.2854 42.3602C32.5546 42.4329 32.8067 42.5579 33.0275 42.728C33.2484 42.8981 33.4335 43.1101 33.5724 43.3518C33.7113 43.5935 33.8012 43.8601 33.8371 44.1366C33.8729 44.413 33.854 44.6938 33.7813 44.963C33.7086 45.2321 33.5836 45.4842 33.4135 45.7051C33.2434 45.9259 33.0314 46.111 32.7897 46.2499L17.9817 54.7116C17.6593 54.8943 17.2946 54.9892 16.924 54.9866Z" fill="#DE4E95"/>
<path d="M46.5386 54.9867C46.1681 54.9893 45.8033 54.8944 45.4809 54.7117L30.673 46.25C30.3501 46.0636 30.0823 45.7953 29.8966 45.4721C29.7108 45.1489 29.6138 44.7824 29.6153 44.4096V25.3708C29.6153 24.8097 29.8381 24.2717 30.2348 23.875C30.6316 23.4782 31.1696 23.2554 31.7307 23.2554C32.2917 23.2554 32.8298 23.4782 33.2265 23.875C33.6232 24.2717 33.8461 24.8097 33.8461 25.3708V43.1827L44.4232 49.2328V27.4862C44.4232 26.9252 44.6461 26.3871 45.0428 25.9904C45.4395 25.5937 45.9776 25.3708 46.5386 25.3708C47.0997 25.3708 47.6377 25.5937 48.0345 25.9904C48.4312 26.3871 48.6541 26.9252 48.6541 27.4862V52.8713C48.6555 53.244 48.5585 53.6106 48.3727 53.9338C48.187 54.257 47.9192 54.5253 47.5963 54.7117C47.2739 54.8944 46.9092 54.9893 46.5386 54.9867Z" fill="#DE4E95"/>
<path d="M40.1939 21.1398C38.9388 21.1398 37.7118 20.7676 36.6681 20.0703C35.6245 19.3729 34.8111 18.3818 34.3307 17.2221C33.8504 16.0625 33.7247 14.7865 33.9696 13.5554C34.2145 12.3244 34.8189 11.1936 35.7064 10.306C36.594 9.41851 37.7248 8.81408 38.9558 8.56921C40.1869 8.32434 41.4629 8.45002 42.6225 8.93035C43.7822 9.41068 44.7733 10.2241 45.4707 11.2677C46.168 12.3114 46.5402 13.5384 46.5402 14.7935C46.5402 16.4767 45.8716 18.0909 44.6814 19.281C43.4913 20.4712 41.8771 21.1398 40.1939 21.1398ZM40.1939 12.6781C39.7755 12.6781 39.3665 12.8022 39.0187 13.0346C38.6708 13.2671 38.3996 13.5975 38.2395 13.984C38.0794 14.3705 38.0375 14.7959 38.1192 15.2062C38.2008 15.6166 38.4022 15.9935 38.6981 16.2894C38.9939 16.5852 39.3709 16.7867 39.7812 16.8683C40.1916 16.9499 40.6169 16.908 41.0035 16.7479C41.39 16.5878 41.7204 16.3167 41.9528 15.9688C42.1853 15.6209 42.3094 15.2119 42.3094 14.7935C42.3094 14.2325 42.0865 13.6944 41.6898 13.2977C41.293 12.901 40.755 12.6781 40.1939 12.6781Z" fill="#DE4E95"/>
</svg>
