<svg width="381" height="71" viewBox="0 0 381 71" fill="none" xmlns="http://www.w3.org/2000/svg">
<path fill-rule="evenodd" clip-rule="evenodd" d="M97.0488 36.0863C105.233 36.0863 109.331 33.1052 109.331 27.1423H103.227C103.227 29.7276 100.355 31.0571 97.0488 31.0571C92.4079 31.0571 90.1868 28.6818 90.1868 23.1146C90.1868 17.5483 92.2725 15.2489 97.0488 15.2489C100.535 15.2489 103.254 16.3278 103.254 19.2013H109.364C108.936 13.2008 104.231 10.2205 97.0488 10.2205C88.2771 10.2205 84.0771 14.1707 84.0771 23.1146C84.0771 32.0594 88.0281 36.0863 97.0488 36.0863ZM137.21 35.7229H143.319L133.8 10.5779H127.333L117.809 35.7229H123.918L125.68 31.0504H135.453L137.21 35.7229ZM133.551 26.0265H127.594L130.57 18.1607L133.551 26.0265ZM151.765 35.7229H157.873V27.4576H162.444L167.218 35.7229H173.685L168.585 26.8827C171.679 25.8038 173.223 23.147 173.223 18.947C173.223 13.3791 170.423 10.5711 164.812 10.5711H151.77V35.7184L151.765 35.7229ZM164.773 22.4314H157.867V15.607H164.773C166.243 15.607 167.109 16.7244 167.109 18.9846C167.109 21.2449 166.312 22.4367 164.773 22.4367V22.4314ZM182.121 35.7229H202.599V30.6922H188.228V25.6631H199.005V20.6324H188.228V15.6018H202.599V10.5711H182.121V35.7184V35.7229ZM224.016 36.0863C232.211 36.0863 236.299 33.1052 236.299 27.1423H230.19C230.19 29.7276 227.318 31.0571 224.009 31.0571C219.38 31.0571 217.147 28.6818 217.147 23.1146C217.147 17.5483 219.234 15.2489 224.009 15.2489C227.495 15.2489 230.227 16.3278 230.227 19.2013H236.336C235.909 13.2008 231.199 10.2205 224.009 10.2205C215.25 10.2205 211.038 14.1707 211.038 23.1146C211.038 32.0594 214.991 36.0863 224.009 36.0863H224.016ZM262.747 35.7229H268.856V10.5779H262.747V20.6377H250.891V10.5779H244.782V35.7229H250.891V25.6631H262.747V35.7229ZM290.266 36.0863C298.859 36.0863 303.167 31.9134 303.167 23.1146C303.167 14.3166 299.146 10.2205 290.266 10.2205C281.388 10.2205 277.3 14.2421 277.3 23.1146C277.3 31.9879 281.361 36.0863 290.266 36.0863ZM283.404 23.1101C283.404 17.8297 285.562 15.2444 290.26 15.2444C294.961 15.2444 297.053 17.7589 297.053 23.1101C297.053 28.4591 294.966 31.0504 290.26 31.0504C285.555 31.0504 283.404 28.5727 283.404 23.1101ZM311.613 35.7229H317.722V10.5779H311.613V35.7229ZM339.128 36.0863C347.318 36.0863 351.421 33.1052 351.421 27.1423H345.312C345.312 29.7276 342.44 31.0571 339.128 31.0571C334.498 31.0571 332.27 28.6818 332.27 23.1146C332.27 17.5483 334.357 15.2489 339.128 15.2489C342.618 15.2489 345.345 16.3278 345.345 19.2013H351.454C351.026 13.2008 346.316 10.2205 339.128 10.2205C330.363 10.2205 326.163 14.1707 326.163 23.1146C326.163 32.0594 330.114 36.0863 339.128 36.0863ZM359.894 35.7229H380.373V30.6922H366.003V25.6631H376.785V20.6324H366.003V15.6018H380.373V10.5711H359.894V35.7184V35.7229Z" fill="white"/>
<path fill-rule="evenodd" clip-rule="evenodd" d="M111.219 64.6902V51.5635H114.119V56.5927H119.413V51.5635H122.309V64.6902H119.413V59.2224H114.119V64.6902H111.219ZM142.609 64.8873C141.254 64.8873 140.067 64.6037 139.048 64.0409C138.029 63.4765 137.248 62.6865 136.707 61.6602C136.154 60.6362 135.876 59.4443 135.876 58.0825C135.876 56.7228 136.159 55.531 136.712 54.5122C137.27 53.5033 138.057 52.7283 139.075 52.1858C140.094 51.638 141.282 51.3664 142.631 51.3664C143.98 51.3664 145.178 51.6433 146.192 52.1971C147.205 52.7433 147.992 53.5251 148.545 54.5491C149.098 55.5679 149.375 56.7499 149.375 58.1096C149.375 59.4714 149.093 60.6685 148.54 61.6941C147.976 62.7136 147.183 63.5036 146.165 64.0627C145.145 64.6157 143.959 64.8918 142.609 64.8918V64.8873ZM138.772 58.0825C138.772 58.9139 138.94 59.634 139.276 60.2464C139.611 60.8581 140.078 61.3299 140.657 61.6504C141.242 61.971 141.888 62.1335 142.604 62.1335C143.319 62.1335 143.991 61.971 144.582 61.6504C145.163 61.3246 145.629 60.8581 145.974 60.2464C146.312 59.6392 146.48 58.9139 146.48 58.0825C146.48 57.2533 146.312 56.5656 145.974 55.9637C145.629 55.3632 145.168 54.902 144.582 54.5815C143.991 54.2625 143.335 54.0999 142.604 54.0999C141.871 54.0999 141.242 54.2557 140.657 54.5762C140.072 54.8967 139.611 55.3512 139.276 55.9531C138.94 56.5551 138.772 57.2706 138.772 58.0825ZM161.408 64.6902L164.541 51.5635H167.196L169.755 59.6227L172.292 51.5635H174.954L178.082 64.6902H175.089L173.371 56.4414L170.786 64.6902H168.714L166.13 56.4633L164.406 64.6902H161.413H161.408ZM191.27 64.6902V51.5635H198.887V54.1865H194.17V56.5927H198.692V59.2276H194.17V62.0725H198.887V64.697H191.27V64.6902ZM228.461 64.6902V51.5635H231.35V56.5927H236.652V51.5635H239.541V64.6902H236.652V59.2224H231.35V64.6902H228.461ZM253.998 64.6902V51.5635H261.613V54.1865H256.897V56.5927H261.418V59.2276H256.897V62.0725H261.613V64.697H253.998V64.6902ZM274.25 64.6902L279.577 51.5635H282.027L287.362 64.6902H284.245L283.269 62.0402H278.341L277.355 64.6902H274.25ZM279.22 59.661H282.385L280.796 55.3835L279.22 59.661ZM300.372 64.6902V51.5635H303.261V62.0673H307.976V64.6902H300.365H300.372ZM322.438 64.6902V54.1865H318.692V51.5635H329.079V54.1865H325.339V64.6902H322.438ZM342.261 64.6902V51.5635H345.157V56.5927H350.452V51.5635H353.352V64.6902H350.452V59.2224H345.157V64.6902H342.261Z" fill="white"/>
<path fill-rule="evenodd" clip-rule="evenodd" d="M3.32648 28.9473L37.0212 7.7261L70.7159 28.9473L73.9844 23.7759L37.0159 0.489378L0.0625 23.7759L3.32648 28.9473Z" fill="url(#paint0_linear_20948_1353)"/>
<path fill-rule="evenodd" clip-rule="evenodd" d="M12.0858 70.735L12.0098 26.6705L37.0261 10.9134L62.0425 26.6652L62.0244 44.9497C60.3578 58.7664 44.1206 61.083 23.992 60.3269L12.0858 70.735ZM36.9892 49.872L47.5803 37.5467C50.6727 32.4491 44.2892 27.5817 40.2073 31.2211L37.0216 34.8673L33.8795 31.2543C28.8406 27.3703 23.6211 32.8727 26.2914 37.3714L36.9892 49.872Z" fill="url(#paint1_linear_20948_1353)"/>
<path fill-rule="evenodd" clip-rule="evenodd" d="M35.9594 33.6465L34.1709 31.5901C34.8819 26.7197 39.7674 21.2511 45.1118 16.0053L51.4073 19.9698L52.0874 20.4002C43.169 24.4805 36.6208 28.7264 35.9451 33.6299L35.9594 33.6465Z" fill="url(#paint2_linear_20948_1353)"/>
<path fill-rule="evenodd" clip-rule="evenodd" d="M62.0246 44.4792V44.4385C57.0639 40.0737 52.4441 36.7029 48.3856 35.1432C48.5022 33.5526 47.7897 32.1335 46.6738 31.1832C51.1071 31.2005 56.5019 32.8543 62.0344 34.9949L62.0246 44.4792Z" fill="url(#paint3_linear_20948_1353)"/>
<path fill-rule="evenodd" clip-rule="evenodd" d="M43.6441 42.127L43.6328 42.1406L45.3431 40.1504C49.0675 43.3294 51.175 49.8197 52.6979 57.0392C50.5851 57.994 48.1721 58.7118 45.5139 59.237C46.3806 51.7459 46.0985 45.6671 43.6441 42.127Z" fill="url(#paint4_linear_20948_1353)"/>
<path fill-rule="evenodd" clip-rule="evenodd" d="M12.0853 70.7354L12.0635 58.1083C22.7192 56.2115 30.7099 52.8361 34.6367 47.1245L36.9888 49.8724L39.4206 47.0425C38.2777 52.0739 34.8015 56.4899 29.8243 60.4536C27.9237 60.4468 25.9764 60.4024 23.9915 60.3272L12.0853 70.7354Z" fill="url(#paint5_linear_20948_1353)"/>
<path fill-rule="evenodd" clip-rule="evenodd" d="M21.7256 20.5514L21.7406 20.5416L28.7441 16.1302C28.0647 21.6792 27.8615 26.5737 28.5643 30.2951C27.3815 30.7902 26.4417 31.7556 25.9489 32.9309C24.11 29.6383 22.8121 25.1983 21.7256 20.5514Z" fill="url(#paint6_linear_20948_1353)"/>
<path fill-rule="evenodd" clip-rule="evenodd" d="M12.0353 41.899V41.878L12.0195 32.5977C19.108 38.5734 25.4773 42.5416 30.4838 42.2715L32.2881 44.3798L32.3077 44.4031C27.3997 46.6287 19.8778 44.765 12.0353 41.899Z" fill="url(#paint7_linear_20948_1353)"/>
<defs>
<linearGradient id="paint0_linear_20948_1353" x1="27.8274" y1="47.4484" x2="50.6821" y2="13.5897" gradientUnits="userSpaceOnUse">
<stop stop-color="#B5468E"/>
<stop offset="1" stop-color="#592F8A"/>
</linearGradient>
<linearGradient id="paint1_linear_20948_1353" x1="13.872" y1="69.1738" x2="53.5424" y2="21.3126" gradientUnits="userSpaceOnUse">
<stop stop-color="#FF5697"/>
<stop offset="1" stop-color="#592F8A"/>
</linearGradient>
<linearGradient id="paint2_linear_20948_1353" x1="39.7155" y1="27.7001" x2="11.098" y2="68.5842" gradientUnits="userSpaceOnUse">
<stop stop-color="#231768"/>
<stop offset="1" stop-color="#C1478C"/>
</linearGradient>
<linearGradient id="paint3_linear_20948_1353" x1="39.7155" y1="27.7003" x2="11.0981" y2="68.5843" gradientUnits="userSpaceOnUse">
<stop stop-color="#231768"/>
<stop offset="1" stop-color="#C1478C"/>
</linearGradient>
<linearGradient id="paint4_linear_20948_1353" x1="39.715" y1="27.7002" x2="11.0976" y2="68.5843" gradientUnits="userSpaceOnUse">
<stop stop-color="#231768"/>
<stop offset="1" stop-color="#C1478C"/>
</linearGradient>
<linearGradient id="paint5_linear_20948_1353" x1="39.7148" y1="27.7001" x2="11.0974" y2="68.5842" gradientUnits="userSpaceOnUse">
<stop stop-color="#231768"/>
<stop offset="1" stop-color="#C1478C"/>
</linearGradient>
<linearGradient id="paint6_linear_20948_1353" x1="39.7151" y1="27.7001" x2="11.0977" y2="68.5841" gradientUnits="userSpaceOnUse">
<stop stop-color="#231768"/>
<stop offset="1" stop-color="#C1478C"/>
</linearGradient>
<linearGradient id="paint7_linear_20948_1353" x1="39.7152" y1="27.7002" x2="11.0978" y2="68.5842" gradientUnits="userSpaceOnUse">
<stop stop-color="#231768"/>
<stop offset="1" stop-color="#C1478C"/>
</linearGradient>
</defs>
</svg>
