<svg width="338" height="63" viewBox="0 0 338 63" fill="none" xmlns="http://www.w3.org/2000/svg">
<path fill-rule="evenodd" clip-rule="evenodd" d="M86.0042 31.543C93.2562 31.543 96.8878 28.9014 96.8878 23.6175H91.4787C91.4787 25.9084 88.9338 27.0865 86.0042 27.0865C81.8918 27.0865 79.9236 24.9817 79.9236 20.0486C79.9236 15.1161 81.7718 13.0786 86.0042 13.0786C89.0931 13.0786 91.5027 14.0347 91.5027 16.5809H96.9165C96.5378 11.2637 92.3681 8.62283 86.0042 8.62283C78.2314 8.62283 74.5098 12.1231 74.5098 20.0486C74.5098 27.9746 78.0108 31.543 86.0042 31.543ZM121.591 31.2209H127.005L118.57 8.93953H112.839L104.4 31.2209H109.814L111.375 27.0805H120.035L121.591 31.2209ZM118.349 22.6288H113.071L115.708 15.6588L118.349 22.6288ZM134.489 31.2209H139.902V23.8969H143.952L148.183 31.2209H153.912L149.393 23.3875C152.135 22.4314 153.504 20.0772 153.504 16.3555C153.504 11.4218 151.022 8.93353 146.05 8.93353H134.493V31.2169L134.489 31.2209ZM146.016 19.4432H139.896V13.3959H146.016C147.319 13.3959 148.086 14.386 148.086 16.3889C148.086 18.3917 147.38 19.4478 146.016 19.4478V19.4432ZM161.388 31.2209H179.534V26.7632H166.8V22.3068H176.349V17.849H166.8V13.3913H179.534V8.93353H161.388V31.2169V31.2209ZM198.512 31.543C205.773 31.543 209.396 28.9014 209.396 23.6175H203.982C203.982 25.9084 201.438 27.0865 198.506 27.0865C194.404 27.0865 192.425 24.9817 192.425 20.0486C192.425 15.1161 194.275 13.0786 198.506 13.0786C201.595 13.0786 204.016 14.0347 204.016 16.5809H209.429C209.05 11.2637 204.877 8.62283 198.506 8.62283C190.745 8.62283 187.012 12.1231 187.012 20.0486C187.012 27.9746 190.515 31.543 198.506 31.543H198.512ZM232.832 31.2209H238.245V8.93953H232.832V17.8537H222.326V8.93953H216.913V31.2209H222.326V22.3068H232.832V31.2209ZM257.217 31.543C264.831 31.543 268.649 27.8453 268.649 20.0486C268.649 12.2525 265.085 8.62283 257.217 8.62283C249.35 8.62283 245.728 12.1865 245.728 20.0486C245.728 27.9113 249.326 31.543 257.217 31.543ZM251.136 20.0446C251.136 15.3655 253.049 13.0746 257.212 13.0746C261.377 13.0746 263.231 15.3028 263.231 20.0446C263.231 24.7843 261.382 27.0805 257.212 27.0805C253.043 27.0805 251.136 24.885 251.136 20.0446ZM276.133 31.2209H281.546V8.93953H276.133V31.2209ZM300.515 31.543C307.772 31.543 311.408 28.9014 311.408 23.6175H305.995C305.995 25.9084 303.45 27.0865 300.515 27.0865C296.412 27.0865 294.438 24.9817 294.438 20.0486C294.438 15.1161 296.287 13.0786 300.515 13.0786C303.607 13.0786 306.023 14.0347 306.023 16.5809H311.436C311.058 11.2637 306.884 8.62283 300.515 8.62283C292.747 8.62283 289.026 12.1231 289.026 20.0486C289.026 27.9746 292.527 31.543 300.515 31.543ZM318.916 31.2209H337.063V26.7632H324.329V22.3068H333.883V17.849H324.329V13.3913H337.063V8.93353H318.916V31.2169V31.2209Z" fill="#341D6F"/>
<path fill-rule="evenodd" clip-rule="evenodd" d="M98.5596 56.8892V45.2574H101.129V49.7139H105.821V45.2574H108.387V56.8892H105.821V52.0441H101.129V56.8892H98.5596ZM126.375 57.0639C125.175 57.0639 124.123 56.8125 123.22 56.3138C122.316 55.8137 121.624 55.1137 121.145 54.2043C120.655 53.2968 120.409 52.2407 120.409 51.034C120.409 49.8292 120.66 48.7731 121.15 47.8703C121.644 46.9763 122.341 46.2895 123.244 45.8088C124.147 45.3234 125.199 45.0827 126.394 45.0827C127.59 45.0827 128.651 45.3281 129.55 45.8188C130.448 46.3029 131.145 46.9956 131.635 47.903C132.125 48.8058 132.37 49.8532 132.37 51.058C132.37 52.2648 132.121 53.3255 131.631 54.2343C131.131 55.1377 130.429 55.8377 129.526 56.3331C128.622 56.8232 127.571 57.0679 126.375 57.0679V57.0639ZM122.975 51.034C122.975 51.7707 123.124 52.4088 123.421 52.9515C123.719 53.4935 124.132 53.9116 124.645 54.1956C125.164 54.4796 125.736 54.6236 126.37 54.6236C127.004 54.6236 127.6 54.4796 128.124 54.1956C128.638 53.9069 129.051 53.4935 129.357 52.9515C129.656 52.4134 129.805 51.7707 129.805 51.034C129.805 50.2992 129.656 49.6899 129.357 49.1565C129.051 48.6244 128.642 48.2157 128.124 47.9317C127.6 47.649 127.018 47.505 126.37 47.505C125.721 47.505 125.164 47.643 124.645 47.927C124.127 48.211 123.719 48.6137 123.421 49.1471C123.124 49.6805 122.975 50.3146 122.975 51.034ZM143.033 56.8892L145.809 45.2574H148.162L150.43 52.3988L152.677 45.2574H155.036L157.808 56.8892H155.156L153.634 49.5798L151.343 56.8892H149.507L147.217 49.5992L145.689 56.8892H143.038H143.033ZM169.494 56.8892V45.2574H176.243V47.5817H172.064V49.7139H176.071V52.0487H172.064V54.5696H176.243V56.8952H169.494V56.8892ZM202.45 56.8892V45.2574H205.01V49.7139H209.708V45.2574H212.268V56.8892H209.708V52.0441H205.01V56.8892H202.45ZM225.079 56.8892V45.2574H231.826V47.5817H227.648V49.7139H231.653V52.0487H227.648V54.5696H231.826V56.8952H225.079V56.8892ZM243.024 56.8892L247.745 45.2574H249.916L254.643 56.8892H251.881L251.016 54.541H246.649L245.775 56.8892H243.024ZM247.428 52.4328H250.233L248.825 48.6424L247.428 52.4328ZM266.171 56.8892V45.2574H268.731V54.565H272.91V56.8892H266.165H266.171ZM285.724 56.8892V47.5817H282.405V45.2574H291.609V47.5817H288.295V56.8892H285.724ZM303.29 56.8892V45.2574H305.856V49.7139H310.548V45.2574H313.118V56.8892H310.548V52.0441H305.856V56.8892H303.29Z" fill="#D64E90"/>
<path fill-rule="evenodd" clip-rule="evenodd" d="M2.95477 25.2168L32.8122 6.41238L62.6697 25.2168L65.5659 20.6344L32.8075 -0.000205994L0.0625 20.6344L2.95477 25.2168Z" fill="url(#paint0_linear_20948_1329)"/>
<path fill-rule="evenodd" clip-rule="evenodd" d="M10.7158 62.2456L10.6484 23.1993L32.8158 9.23667L54.9832 23.1946L54.9672 39.3968C53.4904 51.64 39.1024 53.6928 21.2661 53.0227L10.7158 62.2456ZM32.7832 43.7586L42.168 32.8369C44.9083 28.3198 39.2518 24.0067 35.6348 27.2317L32.8118 30.4626L30.0276 27.261C25.5625 23.8194 20.9374 28.6951 23.3036 32.6815L32.7832 43.7586Z" fill="url(#paint1_linear_20948_1329)"/>
<path fill-rule="evenodd" clip-rule="evenodd" d="M31.8709 29.3809L30.2861 27.5587C30.9162 23.243 35.2453 18.3972 39.981 13.7487L45.5596 17.2617L46.1623 17.6431C38.2595 21.2588 32.457 25.0211 31.8583 29.3662L31.8709 29.3809Z" fill="url(#paint2_linear_20948_1329)"/>
<path fill-rule="evenodd" clip-rule="evenodd" d="M54.9669 38.9795V38.9435C50.5711 35.0758 46.4774 32.0889 42.8811 30.7067C42.9844 29.2973 42.353 28.0398 41.3643 27.1977C45.2926 27.2131 50.0731 28.6785 54.9755 30.5754L54.9669 38.9795Z" fill="url(#paint3_linear_20948_1329)"/>
<path fill-rule="evenodd" clip-rule="evenodd" d="M38.6809 36.8952L38.6709 36.9072L40.1864 35.1438C43.4867 37.9607 45.3542 43.7119 46.7036 50.1091C44.8315 50.9552 42.6933 51.5913 40.3377 52.0566C41.1058 45.4187 40.8558 40.0322 38.6809 36.8952Z" fill="url(#paint4_linear_20948_1329)"/>
<path fill-rule="evenodd" clip-rule="evenodd" d="M10.7156 62.2456L10.6963 51.0566C20.1385 49.3757 27.2192 46.3848 30.6988 41.3237L32.783 43.7586L34.9379 41.251C33.9251 45.7094 30.8448 49.6224 26.4344 53.1348C24.7503 53.1288 23.0248 53.0894 21.2659 53.0227L10.7156 62.2456Z" fill="url(#paint5_linear_20948_1329)"/>
<path fill-rule="evenodd" clip-rule="evenodd" d="M19.2578 17.7769L19.2711 17.7682L25.4771 13.8592C24.875 18.7763 24.695 23.1134 25.3177 26.411C24.2696 26.8497 23.4369 27.7052 23.0002 28.7466C21.3707 25.829 20.2206 21.8946 19.2578 17.7769Z" fill="url(#paint6_linear_20948_1329)"/>
<path fill-rule="evenodd" clip-rule="evenodd" d="M10.6712 36.6934V36.6747L10.6572 28.4513C16.9385 33.7464 22.5823 37.2628 27.0187 37.0234L28.6176 38.8916L28.6349 38.9122C24.2858 40.8844 17.6205 39.2329 10.6712 36.6934Z" fill="url(#paint7_linear_20948_1329)"/>
<defs>
<linearGradient id="paint0_linear_20948_1329" x1="24.6655" y1="41.611" x2="44.9173" y2="11.6082" gradientUnits="userSpaceOnUse">
<stop stop-color="#B5468E"/>
<stop offset="1" stop-color="#592F8A"/>
</linearGradient>
<linearGradient id="paint1_linear_20948_1329" x1="12.2986" y1="60.8621" x2="47.4512" y2="18.4515" gradientUnits="userSpaceOnUse">
<stop stop-color="#FF5697"/>
<stop offset="1" stop-color="#592F8A"/>
</linearGradient>
<linearGradient id="paint2_linear_20948_1329" x1="35.1993" y1="24.1117" x2="9.84087" y2="60.3397" gradientUnits="userSpaceOnUse">
<stop stop-color="#231768"/>
<stop offset="1" stop-color="#C1478C"/>
</linearGradient>
<linearGradient id="paint3_linear_20948_1329" x1="35.1984" y1="24.1115" x2="9.84001" y2="60.3395" gradientUnits="userSpaceOnUse">
<stop stop-color="#231768"/>
<stop offset="1" stop-color="#C1478C"/>
</linearGradient>
<linearGradient id="paint4_linear_20948_1329" x1="35.1992" y1="24.1114" x2="9.84092" y2="60.3394" gradientUnits="userSpaceOnUse">
<stop stop-color="#231768"/>
<stop offset="1" stop-color="#C1478C"/>
</linearGradient>
<linearGradient id="paint5_linear_20948_1329" x1="35.1986" y1="24.1114" x2="9.8402" y2="60.3394" gradientUnits="userSpaceOnUse">
<stop stop-color="#231768"/>
<stop offset="1" stop-color="#C1478C"/>
</linearGradient>
<linearGradient id="paint6_linear_20948_1329" x1="35.1986" y1="24.1115" x2="9.84024" y2="60.3395" gradientUnits="userSpaceOnUse">
<stop stop-color="#231768"/>
<stop offset="1" stop-color="#C1478C"/>
</linearGradient>
<linearGradient id="paint7_linear_20948_1329" x1="35.1988" y1="24.1115" x2="9.84048" y2="60.3396" gradientUnits="userSpaceOnUse">
<stop stop-color="#231768"/>
<stop offset="1" stop-color="#C1478C"/>
</linearGradient>
</defs>
</svg>
