<svg width="43" height="40" viewBox="0 0 43 40" fill="none" xmlns="http://www.w3.org/2000/svg">
<path d="M16.9641 11.7573C10.8869 11.7573 5.94141 16.7029 5.94141 22.7801C5.94141 23.8529 6.09572 24.9185 6.39701 25.9326L7.80792 25.5137C7.54338 24.6392 7.4111 23.7207 7.4111 22.7874C7.4111 17.5185 11.6953 13.2344 16.9641 13.2344C22.233 13.2344 26.5172 17.5185 26.5172 22.7874C26.5172 28.0563 22.233 32.3404 16.9641 32.3404C14.4583 32.3404 12.0847 31.3704 10.2844 29.6068L9.25557 30.6576C11.3352 32.6858 14.0688 33.8028 16.9641 33.8028C23.0413 33.8028 27.9869 28.8573 27.9869 22.7801C27.9869 16.7029 23.0413 11.7573 16.9641 11.7573Z" fill="#EE5296"/>
<path d="M7.00684 27.5055C7.27138 28.064 7.58002 28.5931 7.93275 29.0854L9.13055 28.233C8.82926 27.8141 8.56472 27.3512 8.33691 26.8735L7.00684 27.4982V27.5055Z" fill="#EE5296"/>
<path d="M30.2868 19.6646L32.1901 15.9316C32.293 15.7258 32.3003 15.476 32.1974 15.2702C32.1019 15.0571 31.9108 14.9102 31.683 14.8661L27.6487 14.0651L27.781 9.8544C27.7883 9.61925 27.6855 9.3988 27.5091 9.25183C27.3327 9.10486 27.0976 9.05342 26.8771 9.1122L22.8942 10.1777L21.2261 6.32713C21.1306 6.11402 20.9469 5.9597 20.7264 5.90826C20.506 5.85682 20.2708 5.90826 20.0945 6.06258L16.964 8.79622L13.8336 6.06258C13.6572 5.90826 13.4294 5.85682 13.2016 5.90092C12.9811 5.95235 12.7974 6.10667 12.7019 6.31978L11.0338 10.1704L7.05826 9.10486C6.83781 9.04607 6.60265 9.10486 6.42629 9.24448C6.24993 9.39145 6.14705 9.6119 6.1544 9.84705L6.28667 14.0577L2.25235 14.8587C2.03189 14.9028 1.84083 15.0571 1.73796 15.2629C1.63508 15.476 1.64242 15.7185 1.7453 15.9243L3.64121 19.6573L0.349091 22.1778C0.165379 22.3174 0.0625 22.5379 0.0625 22.773C0.0625 23.0082 0.172727 23.2286 0.349091 23.3683L3.64121 25.8888L1.73796 29.6218C1.63508 29.8276 1.62773 30.0774 1.73061 30.2832C1.82614 30.4963 2.0172 30.6433 2.245 30.6874L6.27932 31.4883L6.14705 35.699C6.1397 35.9342 6.24258 36.1546 6.41894 36.3016C6.5953 36.4486 6.83046 36.5 7.05091 36.4412L11.0338 35.3757L12.7019 39.2263C12.7974 39.4394 12.9811 39.5937 13.2016 39.6452C13.422 39.6966 13.6572 39.6452 13.8336 39.4909L16.964 36.7572L20.0945 39.4909C20.2267 39.6084 20.3958 39.6672 20.5648 39.6672C20.6162 39.6672 20.675 39.6672 20.7264 39.6452C20.9469 39.5937 21.1306 39.4394 21.2261 39.2263L22.8942 35.3757L26.8698 36.4412C27.0902 36.5 27.3254 36.4486 27.5017 36.3016C27.6781 36.1546 27.781 35.9342 27.7736 35.699L27.6414 31.4883L31.6757 30.6874C31.8961 30.6433 32.0872 30.489 32.1901 30.2832C32.293 30.0701 32.2856 29.8276 32.1827 29.6218L30.2868 25.8888L33.5789 23.3683C33.7627 23.2286 33.8655 23.0082 33.8655 22.773C33.8655 22.5379 33.7553 22.3174 33.5789 22.1778L30.2868 19.6573V19.6646ZM28.9274 25.0878C28.6481 25.3083 28.5599 25.6977 28.7216 26.0211L30.4558 29.4381L26.7669 30.173C26.4215 30.2391 26.1717 30.5624 26.1864 30.9225L26.3039 34.7731L22.6664 33.8031C22.3211 33.7149 21.9683 33.8913 21.8214 34.222L20.3002 37.7419L17.4343 35.2434C17.302 35.1258 17.133 35.0671 16.964 35.0671C16.795 35.0671 16.6333 35.1258 16.4937 35.2434L13.6278 37.7419L12.1067 34.222C11.967 33.8913 11.607 33.7149 11.2616 33.8031L7.62409 34.7731L7.74167 30.9225C7.75637 30.5624 7.50652 30.2391 7.16114 30.173L3.4722 29.4381L5.20644 26.0211C5.36811 25.6977 5.27993 25.3009 5.00068 25.0878L1.9878 22.7804L5.00068 20.473C5.27993 20.2525 5.36811 19.863 5.20644 19.5397L3.4722 16.1227L7.16114 15.3878C7.50652 15.3217 7.75637 14.9983 7.74167 14.6383L7.62409 10.7877L11.2616 11.7577C11.607 11.8532 11.9597 11.6695 12.1067 11.3388L13.6278 7.81887L16.4937 10.3174C16.7656 10.5525 17.1624 10.5525 17.427 10.3174L20.2929 7.81887L21.814 11.3388C21.9536 11.6695 22.3137 11.8458 22.6591 11.7577L26.2966 10.7877L26.179 14.6383C26.1643 14.9983 26.4142 15.3217 26.7596 15.3878L30.4485 16.1227L28.7143 19.5397C28.5526 19.863 28.6408 20.2599 28.92 20.473L31.9329 22.7804L28.92 25.0878H28.9274Z" fill="#EE5296"/>
<path d="M16.2294 16.167V17.6367C14.6054 17.6367 13.29 18.9521 13.29 20.5761C13.29 22.2001 14.6054 23.5155 16.2294 23.5155H17.6991C18.5075 23.5155 19.1688 24.1768 19.1688 24.9852C19.1688 25.7935 18.5075 26.4549 17.6991 26.4549H14.0249V27.9246H16.2294V29.3943H17.6991V27.9246C19.3231 27.9246 20.6385 26.6092 20.6385 24.9852C20.6385 23.3612 19.3231 22.0458 17.6991 22.0458H16.2294C15.4211 22.0458 14.7597 21.3844 14.7597 20.5761C14.7597 19.7678 15.4211 19.1064 16.2294 19.1064H19.9037V17.6367H17.6991V16.167H16.2294Z" fill="#EE5296"/>
<path d="M33.8655 0C29.1845 0 25.3119 3.65955 25.0547 8.32584L26.5244 8.40667C26.7375 4.51197 29.9635 1.46235 33.8655 1.46235C37.7676 1.46235 41.214 4.76182 41.214 8.81084C41.214 12.8599 37.9145 16.1593 33.8655 16.1593C33.6377 16.1593 33.4099 16.1593 33.1895 16.1299L33.0204 17.5923C33.2629 17.6217 33.5275 17.6364 33.8729 17.6364C38.7376 17.6364 42.6911 13.6829 42.6911 8.81818C42.6911 3.95349 38.7376 0 33.8729 0H33.8655Z" fill="#EE5296"/>
<path d="M33.1308 4.40869V10.2875L32.249 9.11172L31.0732 9.99354L33.2778 12.9329C33.4174 13.1166 33.6379 13.2269 33.8657 13.2269C34.0935 13.2269 34.3139 13.1166 34.4535 12.9329L36.6581 9.99354L35.4823 9.11172L34.6005 10.2875V4.40869H33.1308Z" fill="#EE5296"/>
</svg>
