<svg width="25" height="19" viewBox="0 0 25 19" fill="none" xmlns="http://www.w3.org/2000/svg">
<path d="M12.1157 14.1861C11.3374 14.1861 10.5591 13.9282 9.89527 13.4056L0.0625 5.68263V16.4689C0.0625 17.7292 1.07431 18.7517 2.32247 18.7517H21.9089C23.1571 18.7517 24.1689 17.7296 24.1689 16.4689V5.68263L14.338 13.4109C13.6741 13.9293 12.8926 14.1861 12.1157 14.1861ZM0.829479 4.35575L10.8204 12.2076C11.5827 12.8069 12.6506 12.8069 13.4128 12.2076L23.4038 4.35575C23.844 3.97529 24.1689 3.39032 24.1689 2.77206C24.1689 1.51129 23.1566 0.489258 21.9089 0.489258H2.32247C1.07431 0.489258 0.0625 1.51129 0.0625 2.77206C0.0625 3.39032 0.345468 3.97529 0.829479 4.35575Z" fill="white"/>
</svg>
