<svg width="116" height="19" viewBox="0 0 116 19" fill="none" xmlns="http://www.w3.org/2000/svg">
<path d="M9.08697 1.46352C9.23665 1.00287 9.88835 1.00287 10.038 1.46353L11.5831 6.21885C11.6501 6.42486 11.842 6.56434 12.0587 6.56434H17.0587C17.5431 6.56434 17.7444 7.18415 17.3526 7.46885L13.3075 10.4078C13.1322 10.5351 13.0589 10.7608 13.1258 10.9668L14.6709 15.7221C14.8206 16.1828 14.2934 16.5659 13.9015 16.2812L9.85639 13.3422C9.68115 13.2149 9.44385 13.2149 9.26861 13.3422L5.22349 16.2812C4.83163 16.5659 4.30439 16.1828 4.45407 15.7221L5.99917 10.9668C6.0661 10.7608 5.99277 10.5351 5.81753 10.4078L1.77241 7.46885C1.38055 7.18415 1.58194 6.56434 2.0663 6.56434H7.06635C7.28296 6.56434 7.47494 6.42486 7.54187 6.21885L9.08697 1.46352Z" fill="#DE4E95"/>
<path d="M33.087 1.46352C33.2366 1.00287 33.8884 1.00287 34.038 1.46353L35.5831 6.21885C35.6501 6.42486 35.842 6.56434 36.0587 6.56434H41.0587C41.5431 6.56434 41.7444 7.18415 41.3526 7.46885L37.3075 10.4078C37.1322 10.5351 37.0589 10.7608 37.1258 10.9668L38.6709 15.7221C38.8206 16.1828 38.2934 16.5659 37.9015 16.2812L33.8564 13.3422C33.6811 13.2149 33.4439 13.2149 33.2686 13.3422L29.2235 16.2812C28.8316 16.5659 28.3044 16.1828 28.4541 15.7221L29.9992 10.9668C30.0661 10.7608 29.9928 10.5351 29.8175 10.4078L25.7724 7.46885C25.3806 7.18415 25.5819 6.56434 26.0663 6.56434H31.0663C31.283 6.56434 31.4749 6.42486 31.5419 6.21885L33.087 1.46352Z" fill="#DE4E95"/>
<path d="M57.087 1.46352C57.2366 1.00287 57.8884 1.00287 58.038 1.46353L59.5831 6.21885C59.6501 6.42486 59.842 6.56434 60.0587 6.56434H65.0587C65.5431 6.56434 65.7444 7.18415 65.3526 7.46885L61.3075 10.4078C61.1322 10.5351 61.0589 10.7608 61.1258 10.9668L62.6709 15.7221C62.8206 16.1828 62.2934 16.5659 61.9015 16.2812L57.8564 13.3422C57.6811 13.2149 57.4439 13.2149 57.2686 13.3422L53.2235 16.2812C52.8316 16.5659 52.3044 16.1828 52.4541 15.7221L53.9992 10.9668C54.0661 10.7608 53.9928 10.5351 53.8175 10.4078L49.7724 7.46885C49.3806 7.18415 49.5819 6.56434 50.0663 6.56434H55.0663C55.283 6.56434 55.4749 6.42486 55.5419 6.21885L57.087 1.46352Z" fill="#DE4E95"/>
<path d="M81.087 1.46352C81.2366 1.00287 81.8884 1.00287 82.038 1.46353L83.5831 6.21885C83.6501 6.42486 83.842 6.56434 84.0587 6.56434H89.0587C89.5431 6.56434 89.7444 7.18415 89.3526 7.46885L85.3075 10.4078C85.1322 10.5351 85.0589 10.7608 85.1258 10.9668L86.6709 15.7221C86.8206 16.1828 86.2934 16.5659 85.9015 16.2812L81.8564 13.3422C81.6811 13.2149 81.4439 13.2149 81.2686 13.3422L77.2235 16.2812C76.8316 16.5659 76.3044 16.1828 76.4541 15.7221L77.9992 10.9668C78.0661 10.7608 77.9928 10.5351 77.8175 10.4078L73.7724 7.46885C73.3806 7.18415 73.5819 6.56434 74.0663 6.56434H79.0663C79.283 6.56434 79.4749 6.42486 79.5419 6.21885L81.087 1.46352Z" fill="#DE4E95"/>
<path d="M105.087 1.46352C105.237 1.00287 105.888 1.00287 106.038 1.46353L107.583 6.21885C107.65 6.42486 107.842 6.56434 108.059 6.56434H113.059C113.543 6.56434 113.744 7.18415 113.353 7.46885L109.307 10.4078C109.132 10.5351 109.059 10.7608 109.126 10.9668L110.671 15.7221C110.821 16.1828 110.293 16.5659 109.902 16.2812L105.856 13.3422C105.681 13.2149 105.444 13.2149 105.269 13.3422L101.223 16.2812C100.832 16.5659 100.304 16.1828 100.454 15.7221L101.999 10.9668C102.066 10.7608 101.993 10.5351 101.818 10.4078L97.7724 7.46885C97.3806 7.18415 97.5819 6.56434 98.0663 6.56434H103.066C103.283 6.56434 103.475 6.42486 103.542 6.21885L105.087 1.46352Z" fill="#DE4E95"/>
</svg>
