<svg width="25" height="24" viewBox="0 0 25 24" fill="none" xmlns="http://www.w3.org/2000/svg">
<path fill-rule="evenodd" clip-rule="evenodd" d="M21.5372 0.154037H3.2247C1.84606 0.154037 0.727539 1.27256 0.727539 2.6512V20.9637C0.727539 22.3423 1.84606 23.4609 3.2247 23.4609H21.5372C22.9158 23.4609 24.0344 22.3423 24.0344 20.9637V2.6512C24.0344 1.27256 22.9158 0.154037 21.5372 0.154037ZM18.9932 8.41547C19.0036 8.56114 19.0036 8.71201 19.0036 8.85768C19.0036 13.3682 15.57 18.5654 9.29592 18.5654C7.36062 18.5654 5.56578 18.0035 4.05708 17.0359C4.33281 17.0671 4.59814 17.0775 4.87907 17.0775C6.47621 17.0775 7.94329 16.5364 9.11383 15.6208C7.61554 15.5896 6.35655 14.6063 5.92475 13.2537C6.4502 13.3318 6.92361 13.3318 7.46467 13.1913C5.90394 12.8739 4.7334 11.5005 4.7334 9.84093V9.79932C5.18601 10.0542 5.71665 10.2103 6.27331 10.2311C5.32275 9.59883 4.75234 8.53224 4.75421 7.3906C4.75421 6.7559 4.92069 6.17323 5.21722 5.6686C6.8976 7.73916 9.42077 9.09179 12.2509 9.23745C11.7671 6.92238 13.4995 5.04431 15.5804 5.04431C16.5637 5.04431 17.4481 5.4553 18.0724 6.12121C18.8423 5.97554 19.5811 5.68941 20.2366 5.29923C19.9817 6.08999 19.4458 6.7559 18.7383 7.1773C19.425 7.10446 20.0909 6.91197 20.7048 6.64665C20.2418 7.32817 19.6591 7.93165 18.9932 8.41547V8.41547Z" fill="white"/>
</svg>
