<svg width="26" height="19" viewBox="0 0 26 19" fill="none" xmlns="http://www.w3.org/2000/svg">
<path fill-rule="evenodd" clip-rule="evenodd" d="M25.4804 3.70711C25.19 2.61345 24.3342 1.75211 23.2476 1.4598C21.2781 0.92865 13.3806 0.92865 13.3806 0.92865C13.3806 0.92865 5.48306 0.92865 3.51349 1.4598C2.4269 1.75216 1.57112 2.61345 1.28066 3.70711C0.75293 5.68944 0.75293 9.82538 0.75293 9.82538C0.75293 9.82538 0.75293 13.9613 1.28066 15.9437C1.57112 17.0373 2.4269 17.8628 3.51349 18.1551C5.48306 18.6862 13.3806 18.6862 13.3806 18.6862C13.3806 18.6862 21.2781 18.6862 23.2476 18.1551C24.3342 17.8628 25.19 17.0373 25.4804 15.9437C26.0082 13.9613 26.0082 9.82538 26.0082 9.82538C26.0082 9.82538 26.0082 5.68944 25.4804 3.70711ZM10.7976 13.5805V6.07025L17.3984 9.82547L10.7976 13.5805Z" fill="white"/>
</svg>
